<svg id="calendar4" xmlns="http://www.w3.org/2000/svg" width="24.809" height="24.809" viewBox="0 0 24.809 24.809">
  <path id="Path_9" data-name="Path 9" d="M21.611,1.938H19.382V.775a.775.775,0,0,0-1.551,0V1.938H6.977V.775a.775.775,0,1,0-1.551,0V1.938H3.2A3.2,3.2,0,0,0,0,5.136V21.611a3.2,3.2,0,0,0,3.2,3.2H21.611a3.2,3.2,0,0,0,3.2-3.2V5.136A3.2,3.2,0,0,0,21.611,1.938Zm1.647,19.672a1.647,1.647,0,0,1-1.647,1.647H3.2a1.647,1.647,0,0,1-1.647-1.647V8.77a.242.242,0,0,1,.242-.242H23.016a.242.242,0,0,1,.242.242Z" fill="#1b224c"/>
</svg>
