<svg xmlns="http://www.w3.org/2000/svg" width="44" height="44" viewBox="0 0 44 44">
  <g id="Group_58" data-name="Group 58" transform="translate(-249.986 -100.986)">
    <circle id="Ellipse_3" data-name="Ellipse 3" cx="22" cy="22" r="22" transform="translate(249.986 100.986)" fill="#1b224c"/>
    <g id="Layer_2" data-name="Layer 2" transform="translate(247.986 98.986)">
      <path id="Path_10225" data-name="Path 10225" d="M24,2A22,22,0,1,0,46,24,22,22,0,0,0,24,2Zm9.5,19.8L23.252,32.074a2.552,2.552,0,0,1-1.826.748,2.508,2.508,0,0,1-1.8-.748L14.5,26.9A2.552,2.552,0,0,1,18.1,23.3l3.322,3.3,8.47-8.448A2.567,2.567,0,1,1,33.5,21.8Z" fill="#fff"/>
    </g>
  </g>
</svg>
