<svg xmlns="http://www.w3.org/2000/svg" xmlns:xlink="http://www.w3.org/1999/xlink" width="56.691" height="56.691" viewBox="0 0 56.691 56.691">
  <defs>
    <filter id="Rectangle_2567" x="0" y="0" width="56.691" height="56.691" filterUnits="userSpaceOnUse">
      <feOffset dy="3" input="SourceAlpha"/>
      <feGaussianBlur stdDeviation="3" result="blur"/>
      <feFlood flood-opacity="0.149"/>
      <feComposite operator="in" in2="blur"/>
      <feComposite in="SourceGraphic"/>
    </filter>
  </defs>
  <g id="Group_16539" data-name="Group 16539" transform="translate(9 6)">
    <g transform="matrix(1, 0, 0, 1, -9, -6)" filter="url(#Rectangle_2567)">
      <rect id="Rectangle_2567-2" data-name="Rectangle 2567" width="38.691" height="38.691" rx="19.346" transform="translate(9 6)" fill="rgba(2,10,88,0.1)"/>
    </g>
    <g id="x" transform="translate(10.344 10.344)">
      <path id="Path_10223" data-name="Path 10223" d="M26.671,9.329a1.125,1.125,0,0,1,0,1.593l-15.75,15.75a1.126,1.126,0,0,1-1.593-1.593l15.75-15.75a1.125,1.125,0,0,1,1.593,0Z" transform="translate(-8.998 -8.998)" fill="#020a58" fill-rule="evenodd"/>
      <path id="Path_10224" data-name="Path 10224" d="M9.329,9.329a1.125,1.125,0,0,0,0,1.593l15.75,15.75a1.126,1.126,0,0,0,1.593-1.593L10.922,9.329a1.125,1.125,0,0,0-1.593,0Z" transform="translate(-8.998 -8.998)" fill="#020a58" fill-rule="evenodd"/>
    </g>
  </g>
</svg>
