<svg width="29" height="23" viewBox="0 0 29 23" fill="none" xmlns="http://www.w3.org/2000/svg">
<g id="Mobile 3">
<path id="Vector" d="M28.9252 3.24059C28.7945 2.58208 28.5025 1.97948 28.0947 1.48167C28.0087 1.3732 27.9189 1.27606 27.8215 1.17892C27.0991 0.452899 26.0851 0 24.9774 0H4.02268C2.91496 0 1.9046 0.452899 1.17875 1.17892C1.08161 1.27606 0.991779 1.3732 0.905572 1.48167C0.497589 1.97942 0.205606 2.58208 0.0785041 3.24059C0.0262813 3.49473 0 3.75738 0 4.02291V18.74C0 19.3046 0.119739 19.8474 0.333274 20.3375C0.531347 20.8053 0.823386 21.2287 1.17869 21.5836C1.26875 21.6735 1.35819 21.756 1.45578 21.8382C2.15167 22.4145 3.04993 22.7626 4.02268 22.7626H24.9774C25.9505 22.7626 26.8526 22.4145 27.5445 21.8346C27.6418 21.756 27.7317 21.6735 27.8215 21.5836C28.1767 21.2287 28.4687 20.8053 28.6708 20.3375V20.3339C28.8843 19.8437 29 19.3046 29 18.7401V4.02291C29.0001 3.75738 28.9742 3.49473 28.9252 3.24059ZM2.6343 2.6343C2.99369 2.27532 3.47633 2.05798 4.02268 2.05798H24.9774C25.5237 2.05798 26.0106 2.27532 26.3658 2.6343C26.4293 2.69825 26.4892 2.76951 26.542 2.84031L15.559 12.4123C15.2561 12.6778 14.8819 12.8089 14.5 12.8089C14.122 12.8089 13.7481 12.6778 13.4411 12.4123L2.46229 2.83623C2.51088 2.76543 2.57075 2.69825 2.6343 2.6343ZM2.05798 18.74V4.96586L10.006 11.8995L2.06201 18.8259C2.05798 18.7996 2.05798 18.77 2.05798 18.74ZM24.9774 20.7042H4.02268C3.66692 20.7042 3.33404 20.6107 3.04993 20.4463L11.4315 13.142L12.214 13.8227C12.8688 14.3917 13.6883 14.6799 14.5 14.6799C15.316 14.6799 16.1354 14.3917 16.7901 13.8227L17.5722 13.142L25.9505 20.4463C25.666 20.6107 25.3331 20.7042 24.9774 20.7042ZM26.9421 18.74C26.9421 18.77 26.9421 18.7996 26.9382 18.8259L18.9942 11.9036L26.9421 4.96955V18.74Z" fill="#1B224C"/>
</g>
</svg>
