<svg width="14" height="14" viewBox="0 0 14 14" fill="none" xmlns="http://www.w3.org/2000/svg">
<path id="XMLID_902_" d="M7 0C5.61553 0 4.26216 0.410543 3.11101 1.17971C1.95987 1.94888 1.06266 3.04213 0.532846 4.32122C0.00303298 5.6003 -0.13559 7.00776 0.134506 8.36563C0.404603 9.7235 1.07129 10.9708 2.05026 11.9497C3.02922 12.9287 4.2765 13.5954 5.63437 13.8655C6.99224 14.1356 8.3997 13.997 9.67879 13.4672C10.9579 12.9373 12.0511 12.0401 12.8203 10.889C13.5895 9.73785 14 8.38447 14 7C13.9979 5.14413 13.2597 3.36489 11.9474 2.05259C10.6351 0.740295 8.85587 0.00211736 7 0ZM7 2.1C7.17626 2.10004 7.35052 2.13726 7.5114 2.20923C7.67229 2.2812 7.81618 2.38631 7.93368 2.51768C8.05118 2.64905 8.13964 2.80374 8.19329 2.97163C8.24693 3.13952 8.26455 3.31684 8.245 3.492L7.7 8.4H6.3L5.755 3.492C5.73545 3.31684 5.75307 3.13952 5.80672 2.97163C5.86036 2.80374 5.94883 2.64905 6.06632 2.51768C6.18382 2.38631 6.32772 2.2812 6.4886 2.20923C6.64949 2.13726 6.82375 2.10004 7 2.1ZM7 12.6C6.72311 12.6 6.45243 12.5179 6.2222 12.3641C5.99198 12.2102 5.81253 11.9916 5.70657 11.7358C5.60061 11.4799 5.57288 11.1984 5.6269 10.9269C5.68092 10.6553 5.81426 10.4058 6.01005 10.2101C6.20585 10.0143 6.4553 9.88092 6.72688 9.8269C6.99845 9.77288 7.27994 9.80061 7.53576 9.90657C7.79158 10.0125 8.01023 10.192 8.16406 10.4222C8.31789 10.6524 8.4 10.9231 8.4 11.2C8.4 11.5713 8.2525 11.9274 7.98995 12.1899C7.7274 12.4525 7.37131 12.6 7 12.6Z" fill="#C60303"/>
</svg>
