<svg width="275" height="43" viewBox="0 0 275 43" fill="none" xmlns="http://www.w3.org/2000/svg">
<g clip-path="url(#clip0_332_5829)">
<path d="M0.000307882 39.5987C0.940059 39.6478 1.86295 39.5251 2.76899 39.2836C3.39268 39.12 3.88152 38.7885 4.21865 38.2565C5.51661 36.2146 6.73028 34.1276 7.69531 31.9137C8.18837 30.7843 8.87527 29.7531 9.41468 28.64C9.95409 27.5229 10.4851 26.3935 11.1214 25.3295C12.2255 23.4758 13.1526 21.5361 14.1472 19.6292C16.0646 15.9586 17.9314 12.2675 19.8784 8.6132C21.1974 6.13747 22.5248 3.66174 23.6795 1.11235C24.0672 0.257094 24.5729 0.232541 25.2767 0.236634C25.9088 0.236634 26.5409 0.244818 27.1688 0.24891C27.211 0.257094 27.2573 0.265278 27.2995 0.273463C27.7124 0.531266 27.8178 0.989584 28.0116 1.37424C28.3361 2.0208 28.6058 2.696 28.9809 3.318C29.8279 4.7216 30.557 6.18248 31.265 7.65156C32.4281 10.0659 33.7766 12.3902 35.0029 14.7759C36.2039 17.1084 37.4387 19.4246 38.6439 21.7571C39.0527 22.551 39.4024 23.3735 39.8154 24.1674C40.3506 25.1986 40.9069 26.2175 41.4842 27.2242C41.7413 27.6743 41.893 28.1613 42.1543 28.6155C42.9676 30.0314 43.6882 31.5004 44.472 32.9368C45.4497 34.725 46.3684 36.5419 47.561 38.2156C47.8981 38.6903 48.2985 39.0095 48.859 39.1854C49.6428 39.431 50.4519 39.5251 51.2652 39.6028C51.4001 39.6151 51.5476 39.5783 51.6866 39.701C51.7878 40.4704 51.5939 41.2642 51.7625 42.0499C51.792 42.1809 51.6192 42.2668 51.4633 42.2709C51.3074 42.2709 51.1472 42.2586 50.9913 42.2586C45.2348 42.2586 39.4783 42.2586 33.7176 42.2627H33.4942C33.431 42.2709 33.3636 42.275 33.3004 42.275C33.2245 42.275 33.1487 42.2791 33.0686 42.2832C32.7399 42.2586 32.407 42.3282 32.053 42.2341V39.6192C32.5924 39.5374 33.1318 39.5865 33.667 39.521C34.375 39.4351 35.0535 39.2836 35.7319 39.0913C36.5284 38.8703 36.7012 38.6166 36.541 37.8432C36.4357 37.344 36.284 36.857 36.0649 36.3864C35.0577 34.234 33.9999 32.1061 32.7568 30.0641C32.5629 29.7449 32.3522 29.6631 32.0066 29.6672C26.3892 29.6753 20.7718 29.6713 15.1501 29.6713C14.9394 29.6713 14.7287 29.6713 14.518 29.6713C13.9744 29.6794 13.3254 29.5158 12.9208 29.7531C12.5163 29.9863 12.3266 30.6083 12.0864 31.0789C11.1467 32.8958 10.1311 34.68 9.31775 36.5583C9.05648 37.1598 8.98905 37.8391 8.84577 38.4857C8.76992 38.8335 8.93427 39.0504 9.2714 39.1895C10.1269 39.5455 11.0287 39.5946 11.9389 39.5905C12.1497 39.5905 12.3561 39.5905 12.6848 39.5905C12.6848 40.1471 12.6848 40.6831 12.6848 41.2192C12.6132 41.4279 12.6216 41.6407 12.6722 41.8535C12.6722 41.9149 12.6722 41.9763 12.6722 42.0376C12.6553 42.1031 12.6385 42.1727 12.6258 42.2382C12.2929 42.2422 11.96 42.2545 11.6271 42.2545C7.7501 42.2545 3.8731 42.2545 -0.00390625 42.2545V39.5946L0.000307882 39.5987ZM31.0416 26.6963C28.2392 21.4052 25.4747 16.1877 22.7103 10.9703C22.4953 11.0848 22.3942 11.2649 22.2973 11.4449C21.4629 13.0122 20.6074 14.5713 19.8236 16.1673C18.1885 19.4982 16.4565 22.7801 14.7708 26.0866C14.6781 26.2707 14.4885 26.4385 14.5854 26.6963H31.0416Z" fill="white"/>
<path d="M274.34 42.2598H273.101V0.340163C273.535 0.23786 273.935 0.360623 274.34 0.417913V42.2598Z" fill="white"/>
<path d="M97.0512 39.6191C98.0836 39.6314 99.0992 39.5209 100.081 39.1935C100.57 39.0298 101.076 38.8416 101.404 38.4324C101.935 37.7654 101.977 36.9469 101.977 36.1572C101.99 30.6369 101.986 25.1125 101.982 19.5923C101.982 18.2337 101.982 16.8751 101.982 15.4919C100.326 15.3815 98.8759 14.7758 97.7128 13.7242C95.8038 11.9932 94.805 9.77935 95.1717 7.25451C95.6184 4.16087 97.8813 1.31275 101.708 0.621184C102.972 0.392025 104.245 0.273354 105.53 0.277446C109.828 0.289722 114.131 0.261078 118.429 0.306091C120.41 0.326552 122.378 0.527065 124.342 0.809422C127.873 1.31684 131.063 2.56494 133.786 4.82788C135.644 6.3747 137.237 8.15887 138.177 10.3768C138.725 11.6781 139.218 13.0121 139.504 14.4075C139.589 14.8208 139.719 15.226 139.702 15.6515C139.867 16.1631 139.702 16.7278 139.964 17.227C139.972 17.3129 139.981 17.3989 139.989 17.4848C139.981 17.4971 139.959 17.5135 139.964 17.5257C139.972 17.5544 139.989 17.583 140.006 17.6076C140.044 18.4014 140.166 19.2035 140.099 19.9892C139.959 21.581 140.128 23.1851 139.867 24.7688C139.681 25.8859 139.471 26.999 139.138 28.0875C138.902 28.8609 138.628 29.6179 138.383 30.3832C138.211 30.9192 137.814 31.3407 137.608 31.8563C136.921 33.5832 135.733 34.9991 134.565 36.4231C133.697 37.483 132.593 38.3014 131.46 39.0667C130.014 40.0406 128.476 40.8508 126.752 41.26C125.686 41.5096 124.671 41.927 123.571 42.0662C122.972 42.1398 122.374 42.2462 121.771 42.2462C113.63 42.2585 105.492 42.2544 97.3504 42.2544C97.2661 42.2544 97.1776 42.2544 97.0217 42.2544V41.5424C97.0217 41.4728 97.0217 41.3992 97.0217 41.3296C97.0217 41.2641 97.0217 41.2027 97.0174 41.1373C97.0174 41.0963 97.0174 41.0595 97.0174 41.0186C97.0006 40.6544 96.9837 40.2861 96.9669 39.9219C96.9964 39.8196 97.0301 39.7173 97.0596 39.6109L97.0512 39.6191ZM104.691 38.9684C104.624 39.0257 104.632 39.0667 104.721 39.0912C105.441 39.3285 105.576 39.2426 105.606 38.5592C105.614 38.3055 105.627 38.0477 105.627 37.794C105.627 31.2016 105.627 24.6051 105.627 18.0127C105.627 17.6035 105.618 17.1943 105.618 16.7851C105.618 16.3595 105.218 16.4536 105.003 16.4086C104.759 16.3554 104.691 16.5886 104.696 16.8383C104.704 18.2009 104.683 19.5636 104.683 20.9263C104.683 26.9417 104.691 32.9571 104.696 38.9684H104.691ZM108.358 38.7556C108.311 38.8007 108.303 38.8457 108.345 38.8948C108.484 39.4513 108.859 39.1608 109.167 39.1076C109.259 39.1076 109.369 39.1198 109.34 38.9725C109.34 38.8416 109.331 38.7147 109.327 38.5838C109.327 38.5429 109.327 38.5019 109.331 38.461C109.331 31.7458 109.344 25.0307 109.318 18.3155C109.318 17.7181 109.268 17.1083 109.243 16.4741C109.011 16.4741 108.809 16.515 108.632 16.4659C108.332 16.3799 108.265 16.5313 108.231 16.7564C108.231 16.8014 108.231 16.8464 108.231 16.8955C108.231 17.0142 108.223 17.1329 108.223 17.2516C108.265 20.6357 108.21 24.0199 108.307 27.4082C108.417 31.1852 108.349 34.9704 108.362 38.7516L108.358 38.7556ZM111.994 6.03506C111.994 6.24376 111.994 6.3788 111.994 6.50974C111.994 13.1758 111.999 19.8378 111.999 26.5038C111.999 30.51 112.003 34.5162 111.99 38.5183C111.99 39.0094 112.117 39.2222 112.673 39.1935C113.495 39.1485 114.321 39.1812 115.147 39.1894C116.82 39.1976 118.48 39.2058 120.128 38.7925C122.462 38.2073 124.527 37.1597 126.116 35.4165C127.439 33.9679 128.442 32.2942 129.159 30.4527C129.888 28.5908 130.221 26.6757 130.305 24.7115C130.372 23.0787 130.364 21.4378 130.347 19.801C130.339 18.737 130.124 17.6935 129.938 16.6459C129.753 15.6229 129.496 14.6203 129.15 13.6423C128.843 12.7748 128.602 11.895 128.084 11.0847C126.74 9.00594 124.982 7.39364 122.711 6.35015C120.41 5.29029 117.911 5.08569 115.421 5.04067C111.383 4.97111 107.346 5.01203 103.309 5.0284C102.567 5.0284 101.868 5.21254 101.261 5.67904C100.376 6.35834 100.005 7.24633 100.216 8.28982C100.418 9.29239 101.038 9.96349 102.146 10.1763C102.787 10.299 103.389 10.1804 104.004 10.1108C104.11 10.0985 104.169 10.0085 104.194 9.89393C104.278 9.52564 104.093 9.31694 103.617 9.32512C102.993 9.3374 102.39 9.31285 101.809 9.03049C101.556 8.90773 101.409 8.77678 101.337 8.50261C101.24 8.15068 101.232 7.80285 101.244 7.45093C101.274 6.69798 101.649 6.32151 102.407 6.13327C102.757 6.04734 103.098 6.04324 103.444 6.04324C105.163 6.03506 106.883 6.03915 108.606 6.03915C109.71 6.03915 110.815 6.03915 111.99 6.03915L111.994 6.03506Z" fill="white"/>
<path d="M78.9352 2.95936C78.9394 2.14912 78.9436 1.33478 78.952 0.524544C78.9647 0.512267 78.99 0.499991 78.9857 0.491807C78.9857 0.463162 78.9689 0.430425 78.9605 0.40178C79.0068 0.356767 79.0532 0.307661 79.1037 0.262648C79.1501 0.254464 79.1965 0.250372 79.2386 0.242188C83.4864 0.254464 87.7343 0.262648 91.9821 0.279017C92.6227 0.279017 93.2674 0.250372 93.8911 0.418149C93.8532 0.59411 93.8364 0.770071 93.8911 0.946032C93.8911 1.50665 93.8616 2.07137 93.8869 2.63199C93.908 3.06984 93.6973 3.21307 93.2927 3.18851C92.5258 3.13941 91.7756 3.22944 91.0297 3.37675C89.6264 3.65092 89.2219 4.08469 89.0196 5.46373C88.8468 6.65863 88.8257 7.86581 88.8215 9.06889C88.8005 14.6096 88.8384 20.1504 88.792 25.687C88.7836 26.8901 88.7541 28.0932 88.6951 29.2962C88.6235 30.7408 88.1262 32.0993 87.6964 33.462C86.9589 35.7863 85.7368 37.8447 83.8826 39.502C82.9934 40.2959 81.9356 40.8688 80.8231 41.3189C79.5842 41.8181 78.3368 42.2969 76.9883 42.4974C75.8041 42.6734 74.6283 42.9271 73.4273 42.9557C71.4467 43.0008 69.4534 43.0908 67.4854 42.8575C65.3783 42.6079 63.3092 42.2069 61.3201 41.3803C58.7621 40.3163 56.6509 38.7531 55.0748 36.5516C53.9201 34.9393 53.2585 33.1142 52.7696 31.2073C52.1881 28.932 52.1712 26.6159 52.1586 24.3039C52.1291 18.7468 52.1586 13.1897 52.1333 7.63256C52.1333 6.675 52.0237 5.72154 51.8215 4.77626C51.6529 4.00285 51.0208 3.79824 50.4055 3.61819C49.5079 3.35629 48.5555 3.38903 47.6284 3.30309C47.3039 3.27036 47.1943 3.16396 47.1943 2.87342C47.1943 2.03863 47.1943 1.20793 47.1943 0.283109C53.5998 0.283109 59.9758 0.283109 66.356 0.283109C66.3981 0.283109 66.4445 0.287201 66.4866 0.291293C66.5498 0.291293 66.6131 0.291293 66.6721 0.291293C66.7479 0.291293 66.828 0.291293 66.9038 0.291293C67.0893 0.299477 67.1946 0.385412 67.1946 0.577741C67.1946 1.39207 67.1946 2.20641 67.1946 3.03711C66.0821 3.25808 64.9738 3.18442 63.916 3.48724C62.8962 3.77778 62.5253 4.20336 62.361 5.21821C62.2009 6.21668 62.2261 7.22744 62.0618 8.22591C61.9986 8.5983 62.1672 8.98296 62.1672 9.3758C62.1545 14.8674 62.1461 20.355 62.1714 25.8466C62.1756 26.8205 62.0449 27.8026 62.1714 28.7643C62.2936 29.685 62.3273 30.6139 62.4832 31.5265C62.6307 32.3776 62.6939 33.2533 63.01 34.0718C64.0256 36.6989 65.6565 38.7941 68.5263 39.6698C70.1614 40.169 71.8807 40.1854 73.5832 40.1076C75.8884 40.0012 78.0502 39.4324 79.9297 38.0738C81.6027 36.8667 82.5214 35.1725 83.1325 33.2779C83.5033 32.1362 83.5834 30.9495 83.8362 29.7914C83.9626 29.2144 83.8699 28.617 83.9331 28.0236C84.0427 26.9965 84.0806 25.9612 84.0806 24.9218C84.0638 19.0905 84.0806 13.2592 84.0596 7.43204C84.0596 6.66272 83.9458 5.88522 83.8278 5.12C83.6719 4.1297 83.103 3.68366 82.0284 3.48724C81.0802 3.31128 80.1404 3.13532 79.167 3.18033C79.108 3.18033 79.049 3.12304 78.99 3.0944C78.9689 3.04938 78.9478 3.00846 78.9267 2.96345L78.9352 2.95936Z" fill="white"/>
<path d="M269.717 0.511524C269.687 0.278273 269.877 0.315102 270.012 0.282365C270.1 0.323286 270.18 0.319194 270.261 0.257812C270.716 0.265997 271.171 0.290549 271.626 0.278273C271.904 0.270089 272.009 0.372392 272.009 0.630195C272.005 1.02304 272.009 1.41588 272.009 1.80463C272.009 14.1956 272.018 26.5865 272.001 38.9775C272.001 40.0823 272.035 41.1954 271.879 42.3207C271.196 42.4803 270.509 42.2593 269.822 42.2552C269.801 42.1488 269.78 42.0384 269.759 41.932C269.759 37.1114 269.768 32.2868 269.768 27.4663C269.768 22.5926 269.759 17.7189 269.759 12.8493C269.759 9.03132 269.776 5.21746 269.78 1.39951C269.78 1.1458 269.755 0.892091 269.738 0.634287C269.746 0.622011 269.767 0.605643 269.763 0.593366C269.755 0.564721 269.738 0.540169 269.721 0.511524H269.717Z" fill="white"/>
<path d="M153.07 42.2755C152.94 42.2673 152.805 42.2551 152.674 42.2469C152.661 42.1446 152.645 42.0464 152.632 41.9441C152.632 39.3005 152.645 36.6611 152.645 34.0176C152.645 23.2267 152.645 12.4399 152.645 1.64895C152.645 1.60803 152.645 1.5712 152.645 1.53028C152.645 1.32976 152.64 1.13334 152.636 0.932826C152.67 0.781418 152.716 0.63001 152.565 0.507246C152.56 0.228982 152.784 0.294456 152.935 0.290364C153.403 0.273995 153.871 0.278087 154.339 0.273995C154.415 0.273995 154.495 0.265811 154.57 0.261719C154.828 0.269903 154.886 0.421311 154.882 0.638194C154.874 0.961471 154.878 1.28475 154.878 1.60803C154.878 15.1243 154.878 28.6406 154.878 42.1528C154.861 42.1896 154.844 42.2305 154.827 42.2673C154.811 42.2755 154.794 42.2837 154.781 42.296C154.634 42.2755 154.486 42.251 154.339 42.3164C154.17 42.3083 154.002 42.3001 153.833 42.2919C153.791 42.2919 153.744 42.2919 153.702 42.2878C153.534 42.2796 153.365 42.2755 153.197 42.2673C153.154 42.2673 153.117 42.2673 153.074 42.2673L153.07 42.2755Z" fill="white"/>
<path d="M191.848 3.79298C191.84 3.65794 191.831 3.527 191.823 3.39196C191.852 3.26101 191.916 3.1096 191.772 3.02776C191.671 2.97047 191.638 3.08505 191.629 3.17507C190.786 4.95515 189.948 6.73522 189.105 8.51529C189.004 8.73217 188.865 8.93678 188.797 9.16185C188.717 9.42374 188.519 9.50149 188.296 9.53832C188.043 9.57924 187.87 9.4442 187.739 9.2396C187.301 8.5644 186.951 7.836 186.72 7.08714C186.433 6.16641 185.919 5.35617 185.569 4.46818C185.35 3.90756 185.11 3.35513 184.886 2.7986C184.836 2.67583 184.802 2.54489 184.663 2.48351C184.655 2.45895 184.646 2.4344 184.638 2.40575C184.638 2.43031 184.634 2.45895 184.629 2.48351C184.621 2.91727 184.608 3.35103 184.6 3.78071C184.6 3.85437 184.6 3.92802 184.6 4.00168C184.6 4.16537 184.6 4.33314 184.6 4.49683C184.6 4.53775 184.6 4.57867 184.604 4.61959C184.629 6.16641 184.65 7.71323 184.693 9.26006C184.701 9.63244 184.882 9.94344 185.304 10.0294C185.489 10.0662 185.611 10.1808 185.755 10.3158C185.489 10.725 185.047 10.7087 184.655 10.7373C184.132 10.7741 183.605 10.7455 183.079 10.7455C182.59 10.7455 182.361 10.4972 182.392 10.0007C183.348 9.80431 183.5 9.63244 183.513 8.45391C183.534 6.53061 183.521 4.60732 183.513 2.68402C183.513 2.38529 183.458 2.08248 183.395 1.78784C183.315 1.42774 183.251 1.07172 182.695 1.11264C182.337 1.14129 182.337 0.805736 182.358 0.547932C182.375 0.302405 182.493 0.228747 182.775 0.236931C183.652 0.265576 184.528 0.249208 185.405 0.245115C185.519 0.310589 185.632 0.306497 185.755 0.269668C186.349 0.400616 186.361 0.953052 186.492 1.34999C186.715 2.00063 186.994 2.62264 187.305 3.23236C187.807 4.21856 188.211 5.24569 188.603 6.27281C188.654 6.40785 188.692 6.57153 188.86 6.66565C189.252 6.51015 189.252 6.10912 189.391 5.80221C189.847 4.80374 190.285 3.79708 190.727 2.79041C191.035 2.09475 191.347 1.40319 191.633 0.699341C191.76 0.384247 191.958 0.236931 192.303 0.245115C193.125 0.269668 193.951 0.290129 194.773 0.318774C195.279 0.335142 195.093 0.691156 195.102 0.944868C195.064 0.973513 195.043 1.00216 195.013 1.01034C194.052 1.23132 194.019 1.01034 194.01 2.23798C193.997 4.51729 194.019 6.80069 194.023 9.08C193.955 9.16594 193.955 9.25187 194.023 9.33371C193.993 9.82477 194.368 9.90252 194.735 9.98845C194.946 10.0376 195.241 9.98845 195.241 10.3076C195.241 10.6473 194.941 10.6227 194.701 10.6514C194.659 10.6514 194.621 10.6555 194.579 10.6596C193.492 10.6841 192.409 10.7046 191.321 10.7414C191.026 10.7537 190.757 10.68 190.715 10.4099C190.668 10.103 190.9 9.94344 191.237 9.9148C191.675 9.87797 191.836 9.62835 191.831 9.19458C191.823 7.45952 191.844 5.72446 191.857 3.98941C192 3.91575 191.996 3.84618 191.848 3.7848V3.79298Z" fill="white"/>
<path d="M199.211 42.3087C198.911 42.3291 198.701 42.2719 198.692 41.9077C198.688 41.6171 198.781 41.478 199.093 41.433C199.539 41.3716 199.725 41.1465 199.767 40.6473C199.931 38.6258 199.784 36.6002 199.855 34.5787C199.872 34.1163 199.775 33.6702 199.742 33.2201C199.716 32.8886 199.451 32.77 199.152 32.7495C198.755 32.7249 198.667 32.504 198.675 32.1643C198.688 31.8001 198.903 31.7756 199.202 31.7797C200.938 31.8001 202.675 31.796 204.415 31.8247C205.953 31.8533 207.323 32.2953 208.41 33.4247C208.857 33.8912 209.059 34.4477 209.236 35.037C209.691 36.5552 209.472 38.0447 208.933 39.4769C208.296 41.1547 206.96 42.0591 205.144 42.28C203.922 42.4274 202.696 42.2923 201.469 42.3496C201.048 42.3701 200.61 42.235 200.176 42.2759C200.1 42.2759 200.024 42.2759 199.952 42.28C199.889 42.28 199.826 42.2841 199.758 42.2882C199.716 42.2882 199.674 42.2882 199.632 42.2882C199.535 42.2882 199.438 42.2923 199.341 42.2964C199.299 42.2964 199.253 42.3046 199.211 42.3087ZM202.203 32.7822C202.186 32.9377 202.16 33.0523 202.16 33.1669C202.156 35.0902 202.148 37.0135 202.148 38.9368C202.148 39.481 202.148 40.0253 202.169 40.5695C202.181 40.991 202.405 41.2284 202.852 41.3184C204.807 41.7031 206.379 40.7373 206.804 38.8427C207.112 37.48 207.163 36.1173 206.699 34.7751C206.417 33.9649 205.928 33.2774 205.034 33.0769C204.133 32.8763 203.21 32.6636 202.207 32.7863L202.203 32.7822Z" fill="white"/>
<path d="M219.986 16.0582C220.905 16.2342 221.841 16.5329 222.169 17.4372C222.852 19.3155 222.266 20.801 220.298 21.7217C221.2 22.5728 221.769 23.555 222.498 24.4184C222.995 25.0077 223.37 25.6869 224.205 25.8956C224.403 25.9448 224.428 26.1003 224.411 26.2558C224.394 26.4153 224.264 26.489 224.112 26.489C223.181 26.4972 222.253 26.5013 221.322 26.5054C221.145 26.5054 221.027 26.3826 220.943 26.2598C220.155 25.0731 219.333 23.9069 218.617 22.6792C218.301 22.1391 217.951 22.0163 217.34 22.1636C217.272 23.2112 217.272 24.2793 217.361 25.3432C217.386 25.6501 217.706 25.7647 217.98 25.7811C218.322 25.7974 218.393 25.9857 218.381 26.2353C218.364 26.5136 218.073 26.6077 217.892 26.5831C216.607 26.4072 215.313 26.6036 214.011 26.4767C213.893 26.2762 214.002 26.0757 213.969 25.8875C214.011 25.8506 214.032 25.8179 214.061 25.8138C215.026 25.5724 214.976 25.556 215.039 24.5698C215.148 22.8225 215.14 21.0751 215.153 19.3237C215.153 18.7099 215.073 18.1083 215.026 17.5027C214.997 17.1221 214.752 17.0117 214.424 16.9134C213.888 16.7579 213.8 16.3937 214.175 16.0459C214.285 16.0459 214.398 16.0418 214.508 16.0377C216.286 16.0295 218.065 15.9641 219.843 16.0336C219.889 16.0418 219.94 16.0459 219.986 16.0541V16.0582ZM217.331 16.9871C217.331 18.3416 217.323 19.6306 217.336 20.9196C217.336 21.2061 217.605 21.1979 217.812 21.1815C219.548 21.0588 220.564 19.3892 219.843 17.8301C219.666 17.4454 219.384 17.1917 218.92 17.0771C218.41 16.9503 217.917 17.0362 217.327 16.9871H217.331Z" fill="white"/>
<path d="M214.896 10.7125C214.664 10.7125 214.428 10.7084 214.196 10.7044C214.15 10.7044 214.099 10.7044 214.053 10.7044C213.526 10.7207 213.004 10.7289 212.481 10.7494C212.131 10.7657 211.912 10.6593 211.74 10.3279C211.07 9.0184 210.201 7.8235 209.392 6.59177C209.224 6.33806 209.013 6.21939 208.701 6.22348C208.389 6.22758 208.267 6.34215 208.276 6.65316C208.309 7.58616 208.263 8.51916 208.377 9.44807C208.419 9.79181 208.533 9.98414 208.878 10.021C209.097 10.0455 209.215 10.1642 209.312 10.3197C209.182 10.6348 208.925 10.6634 208.655 10.6675C207.761 10.688 206.872 10.7044 205.979 10.7248C205.932 10.6839 205.89 10.6839 205.848 10.7248C205.684 10.7207 205.519 10.7166 205.351 10.7084C205.284 10.643 205.208 10.6225 205.115 10.6471C204.955 10.5693 204.769 10.467 204.828 10.2788C204.883 10.1069 205.052 9.99233 205.258 9.94322C206.063 9.75089 206.067 9.7468 206.067 8.94065C206.072 6.62451 206.076 4.30837 206.076 1.99223C206.076 1.30475 206 1.23928 205.305 1.11243C204.896 1.03877 204.841 0.723674 204.812 0.396304C204.972 0.257172 205.157 0.302185 205.321 0.27354C205.364 0.27354 205.406 0.269448 205.448 0.265356C207.146 0.265356 208.844 0.257172 210.543 0.265356C211.086 0.265356 211.596 0.441317 212.094 0.629555C212.962 0.961017 213.316 1.64031 213.341 2.51602C213.358 3.06027 213.32 3.59634 213.147 4.11195C212.915 4.8117 212.772 4.95083 211.449 5.9043C211.449 6.07208 211.567 6.17847 211.668 6.29305C212.574 7.32426 213.362 8.44551 214.163 9.55447C214.462 9.97187 214.904 9.92276 215.343 10.0742C215.187 10.2665 215.663 10.6839 215.048 10.7125C215.005 10.6471 214.955 10.6348 214.896 10.6962V10.7125ZM208.309 5.45826C209.245 5.31503 210.18 5.25365 210.635 4.35338C211.065 3.50222 211.162 2.59786 210.568 1.75898C210.003 0.956925 209.144 1.13698 208.309 1.14925V5.45826Z" fill="white"/>
<path d="M227.555 42.2838C225.646 42.427 223.741 42.1733 221.773 42.2838C221.849 41.981 221.394 41.6863 221.997 41.5226C222.89 41.2771 222.898 41.2239 222.924 40.2459C222.936 39.718 222.928 39.1901 222.924 38.6622C222.924 37.2136 222.924 35.765 222.907 34.3205C222.907 33.9318 222.835 33.5471 222.814 33.1583C222.797 32.9005 222.633 32.7941 222.414 32.7655C222.237 32.7409 222.085 32.6632 221.925 32.6223C221.605 32.5363 221.66 32.3113 221.668 32.0985C221.676 31.8407 221.874 31.8202 222.077 31.8161C223.13 31.8038 224.18 31.7916 225.233 31.7793C225.275 31.7793 225.322 31.7875 225.364 31.7875C226.299 31.7752 227.222 31.9225 228.145 32.0125C228.878 32.0821 229.717 33.0847 229.789 33.8213C229.923 35.1553 229.262 36.0065 228.145 36.6285C227.993 36.7103 227.846 36.8003 227.69 36.8863C227.85 37.1072 228.103 37.0663 228.305 37.1195C229.338 37.3773 230.269 38.3594 230.294 39.2474C230.345 40.7983 229.805 41.6659 228.524 42.0751C228.246 42.1651 227.968 42.2674 227.665 42.2756C227.622 42.2756 227.585 42.2838 227.542 42.2879L227.555 42.2838ZM225.17 36.1088C225.17 36.1497 225.17 36.1906 225.17 36.2315C225.183 36.4811 225.351 36.518 225.57 36.5302C226.725 36.5957 227.488 35.8878 227.555 34.652C227.618 33.4857 226.931 32.8596 225.73 32.8351C225.275 32.8269 225.107 32.9374 225.132 33.3998C225.178 34.3 225.161 35.2044 225.17 36.1088ZM225.136 37.5001C225.199 38.609 225.06 39.6975 225.246 40.7738C225.305 41.1093 225.511 41.2812 225.823 41.3303C227.121 41.5472 228.162 40.5201 227.917 39.272C227.66 37.9502 226.683 37.3077 225.136 37.496V37.5001Z" fill="white"/>
<path d="M177.457 25.1539C177.474 22.981 177.486 20.8081 177.503 18.6392C177.503 18.6024 177.503 18.5615 177.503 18.5247C177.503 18.3037 177.486 18.0868 177.495 17.8658C177.516 17.4034 177.503 16.9942 176.867 16.9246C176.513 16.8878 176.395 16.6095 176.454 16.2822C176.521 15.9139 176.829 16.0653 177.044 16.053C177.651 16.0244 178.262 16.0162 178.869 16.0039C178.949 16.0244 179.025 16.0448 179.105 16.0694C180.47 17.6408 181.688 19.3185 182.885 21.0086C183.483 21.8556 184.179 22.629 184.688 23.5211C184.954 23.4066 184.887 23.2347 184.887 23.0955C184.903 21.2746 184.908 19.4577 184.924 17.6367C184.924 17.2684 184.832 17.0515 184.393 16.9778C183.968 16.9083 183.58 16.6914 183.77 16.1185C183.98 16.0203 184.233 16.098 184.469 16.0612C184.511 16.0612 184.549 16.0571 184.592 16.053C184.655 16.053 184.718 16.053 184.781 16.0489C184.857 16.0489 184.937 16.0489 185.013 16.0448C185.392 16.0448 185.771 16.0407 186.151 16.0366C186.332 16.1021 186.513 16.0939 186.694 16.0571C186.817 16.0653 186.939 16.0776 187.074 16.0898C187.15 16.5113 187.238 16.8919 186.585 16.9533C186.163 16.9901 186.125 17.3461 186.125 17.694C186.125 20.5912 186.117 23.4884 186.113 26.3856C186.1 26.4306 186.083 26.4756 186.071 26.5247C185.603 26.7212 185.101 26.7662 184.608 26.7007C184.179 26.6434 184.061 26.2097 183.862 25.9314C182.396 23.8771 180.955 21.8024 179.383 19.8219C179.219 19.6132 179.071 19.3676 178.725 19.3431C178.624 19.7155 178.763 20.0592 178.763 20.407C178.747 21.8556 178.78 23.3042 178.78 24.7488C178.78 25.2726 178.881 25.69 179.543 25.7513C179.859 25.78 180.007 26.0132 180.057 26.312C179.901 26.4797 179.72 26.5207 179.501 26.5207C178.624 26.5125 177.748 26.5207 176.871 26.5125C176.669 26.5125 176.416 26.5411 176.374 26.2588C176.332 25.9887 176.526 25.8823 176.753 25.7882C176.993 25.6859 177.331 25.735 177.44 25.4076C177.524 25.3339 177.533 25.2521 177.465 25.1662L177.457 25.1539Z" fill="white"/>
<path d="M184.908 31.7957C185.359 32.1394 185.498 32.6918 185.839 33.1133C186.918 34.4474 187.972 35.8018 188.992 37.1768C189.506 37.8684 189.999 38.5763 190.597 39.3374C190.597 38.8014 190.597 38.3717 190.597 37.9379C190.601 36.4934 190.597 35.0489 190.618 33.6003C190.622 33.1051 190.462 32.79 189.898 32.7369C189.683 32.7164 189.451 32.6223 189.426 32.3522C189.4 32.1067 189.405 31.8652 189.729 31.7957C189.771 31.7957 189.818 31.7916 189.86 31.7875C190.719 31.8038 191.579 31.8243 192.439 31.8284C192.729 31.8284 192.894 31.9102 192.915 32.2294C192.936 32.5322 192.788 32.7041 192.515 32.7246C191.954 32.7614 191.845 33.056 191.849 33.543C191.874 36.3911 191.87 39.2351 191.878 42.0833C191.878 42.1856 191.857 42.2838 191.845 42.4147C191.491 42.4679 191.158 42.603 190.787 42.5743C190.37 42.5375 190.079 42.3983 189.839 42.0014C189.038 40.6592 188.043 39.4438 187.095 38.1957C186.404 37.2914 185.721 36.387 185.026 35.4908C184.883 35.3067 184.71 35.143 184.449 34.8688C184.449 35.9328 184.449 36.8494 184.449 37.7661C184.449 38.7727 184.47 39.7794 184.457 40.782C184.453 41.1789 184.617 41.3712 185.009 41.4326C185.178 41.4572 185.355 41.5022 185.498 41.5881C185.658 41.6863 185.755 41.8541 185.683 42.0505C185.62 42.2265 185.49 42.292 185.279 42.2879C184.364 42.2715 183.454 42.2756 182.54 42.2756C182.325 42.2756 182.165 42.2469 182.148 41.985C182.131 41.7354 182.169 41.494 182.455 41.4899C183.168 41.4817 183.159 40.9743 183.21 40.516C183.442 38.4495 183.256 36.3707 183.311 34.3C183.319 34.0218 183.273 33.7353 183.214 33.4612C183.142 33.097 183.037 32.7532 182.548 32.6918C182.219 32.6509 182.11 32.4136 182.148 32.0903C182.19 31.7343 182.468 31.8325 182.67 31.8243C183.37 31.7998 184.074 31.7916 184.773 31.7793C184.815 31.7834 184.862 31.7916 184.904 31.7957H184.908Z" fill="white"/>
<path d="M251.398 0.257812C252.372 0.270089 253.341 0.286457 254.314 0.298734C254.352 0.298734 254.395 0.302826 254.432 0.306918C254.631 0.515616 254.462 0.757051 254.517 0.969841C253.387 1.32176 253.379 1.32995 253.379 2.46346C253.379 5.20928 253.387 7.951 253.392 10.6968C253.392 10.7459 253.371 10.795 253.349 10.8769C252.941 10.9382 252.528 10.9464 252.111 10.9137C251.908 10.8973 251.765 10.8114 251.639 10.6395C250.206 8.70804 248.764 6.78474 247.323 4.86145C246.944 4.35402 246.544 3.86297 246.143 3.34736C245.928 3.52742 246 3.72384 246 3.89162C246 5.59803 246.013 7.30035 246.013 9.00677C246.013 9.52237 246.16 9.89066 246.759 9.98478C246.965 10.0175 247.277 10.0543 247.268 10.3326C247.26 10.5986 246.982 10.6272 246.754 10.6682C245.831 10.8196 244.904 10.7214 243.981 10.7295C243.724 10.7295 243.682 10.5413 243.682 10.3367C243.682 10.1198 243.762 9.92749 243.994 9.95204C244.529 10.0052 244.643 9.67787 244.698 9.28503C244.757 8.86763 244.833 8.45024 244.837 8.03284C244.858 6.27732 244.862 4.5218 244.854 2.76628C244.854 2.34889 244.778 1.9274 244.727 1.51C244.689 1.20718 244.428 1.14171 244.192 1.13353C243.682 1.11307 243.505 0.879815 243.619 0.356023C244.5 0.204615 245.406 0.294642 246.308 0.282365C246.35 0.290549 246.392 0.298734 246.43 0.302826C246.75 0.454234 246.864 0.781604 247.058 1.03532C248.684 3.18777 250.353 5.3034 251.891 7.51723C251.929 7.57043 251.942 7.64409 251.967 7.70547C252.018 7.68092 252.064 7.65637 252.115 7.63181V6.95252C252.115 5.2502 252.106 3.55197 252.119 1.84965C252.119 1.38724 252.03 1.07214 251.457 1.12125C251.285 1.13762 251.07 1.08033 251.074 0.879815C251.074 0.675209 250.893 0.38876 251.255 0.278273C251.301 0.274181 251.352 0.265997 251.398 0.261905V0.257812Z" fill="white"/>
<path d="M151.519 42.2421C151.368 42.2503 151.3 42.2544 151.229 42.2584C150.348 42.3035 150.344 42.3035 150.344 41.4482C150.344 28.0465 150.344 14.6448 150.344 1.24722C150.344 0.960771 150.344 0.674323 150.344 0.43698C150.517 0.273295 150.664 0.3224 150.799 0.318308C151.503 0.306032 151.511 0.310124 151.511 0.985324C151.511 14.0965 151.519 27.2076 151.519 40.3188C151.519 40.949 151.519 41.5751 151.519 42.2462V42.2421Z" fill="white"/>
<path d="M219.914 33.3719C219.901 35.1765 219.897 36.9812 219.868 38.7899C219.855 39.596 219.699 40.3694 219.252 41.0815C218.646 42.0472 217.664 42.4114 216.623 42.5301C215.177 42.6979 213.77 42.5219 212.645 41.4416C211.848 40.6723 211.579 39.7188 211.557 38.6876C211.524 36.9853 211.536 35.2788 211.553 33.5765C211.553 33.1509 211.498 32.889 210.963 32.8154C210.314 32.7254 210.323 32.6681 210.432 31.821C211.932 31.7023 213.445 31.7924 214.954 31.8292C215.064 32.0993 215.021 32.3366 215.013 32.5617C214.979 32.5903 214.954 32.6231 214.925 32.6271C213.993 32.8481 213.863 32.7663 213.871 33.8671C213.888 35.8067 213.888 37.7505 213.993 39.6861C214.061 40.9996 214.634 41.6134 215.864 41.7239C217.44 41.8631 218.275 41.196 218.519 39.8743C218.625 39.3137 218.608 38.7612 218.616 38.2047C218.637 36.5883 218.633 34.9678 218.65 33.3515C218.65 33.0282 218.603 32.8645 218.203 32.8358C217.697 32.799 217.483 32.443 217.529 31.8455C218.65 31.7392 219.809 31.8333 220.976 31.8455C221.086 32.3161 221.102 32.6558 220.496 32.7049C220.205 32.7294 219.91 32.8522 219.935 33.241C219.885 33.2778 219.872 33.3228 219.91 33.3801L219.914 33.3719Z" fill="white"/>
<path d="M174.584 17.2028C174.584 19.0401 174.605 20.8816 174.562 22.719C174.546 23.3982 174.512 24.1348 174.242 24.7405C173.85 25.6162 173.151 26.2873 172.135 26.5696C170.976 26.897 169.83 26.8847 168.688 26.5083C167.221 26.0213 166.358 25.031 166.223 23.5292C166.071 21.8146 166.206 20.0877 166.147 18.369C166.134 18.0007 166.071 17.6324 166.041 17.2642C166.025 17.0596 165.869 17.0309 165.713 16.9982C165.224 16.9054 164.987 16.5931 165.001 16.0611C166.459 15.9833 167.925 16.0079 169.392 16.0283C169.434 16.0365 169.476 16.0488 169.514 16.057C169.754 16.3434 169.695 16.7977 169.345 16.8549C168.511 16.9941 168.515 17.5301 168.528 18.1521C168.553 19.4657 168.583 20.7793 168.519 22.0888C168.486 22.8499 168.54 23.5865 168.663 24.3272C168.89 25.7226 169.994 26.2095 171.233 25.964C172.607 25.6898 173.184 24.9246 173.281 23.2755C173.391 21.4218 173.361 19.5639 173.328 17.7102C173.319 17.2642 173.117 17.0145 172.679 16.9286C172.228 16.8386 172.089 16.5562 172.16 16.0938C172.734 15.967 173.328 16.0611 173.913 16.0283C173.956 16.0283 174.002 16.0283 174.044 16.0324C174.141 16.0324 174.238 16.0324 174.335 16.0324C174.377 16.0324 174.419 16.0324 174.461 16.0324C174.525 16.0324 174.588 16.0365 174.651 16.0406C174.693 16.0406 174.731 16.0406 174.773 16.0447H175.65C175.78 16.4703 175.73 16.7363 175.279 16.8427C175.064 16.8918 174.866 17.0023 174.659 17.0882C174.588 17.0882 174.55 17.1209 174.567 17.1946L174.584 17.2028Z" fill="white"/>
<path d="M208.414 20.5833C208.422 20.6897 208.481 20.751 208.591 20.7592C208.629 20.7592 208.671 20.7592 208.709 20.7633C208.776 20.7633 208.84 20.7633 208.907 20.7633C208.945 20.7633 208.987 20.7633 209.025 20.7592C209.194 20.7592 209.366 20.7551 209.535 20.751C209.611 20.7551 209.687 20.7592 209.762 20.7633C210.209 20.6447 210.786 20.7879 210.85 20.0308C210.875 19.7198 211.326 19.9163 211.608 19.8426C211.815 20.6365 211.541 21.3853 211.68 22.1178C211.035 22.302 211.039 22.302 210.778 21.7454C210.736 21.6554 210.652 21.5858 210.584 21.5081C210.479 21.3321 210.319 21.3894 210.167 21.4222C209.716 21.4222 209.265 21.4222 208.814 21.4181C208.692 21.3935 208.561 21.328 208.502 21.5081C208.292 21.9746 208.473 22.4656 208.422 22.9444C208.401 23.1449 208.41 23.3454 208.405 23.5501C208.368 23.5746 208.309 23.5951 208.3 23.6278C208.279 23.7056 208.338 23.7383 208.41 23.7465C208.427 24.2048 208.431 24.6631 208.46 25.1255C208.481 25.5143 208.717 25.6984 209.109 25.6943C209.724 25.6943 210.336 25.7025 210.951 25.6943C211.789 25.6861 211.827 25.6452 211.869 24.8309C211.869 24.7654 211.882 24.6999 211.891 24.6345C212.076 24.5158 212.274 24.5772 212.459 24.569C212.632 24.5608 212.801 24.5813 213.054 24.5935C213.054 25.1583 213.07 25.6984 213.049 26.2345C213.037 26.5905 212.662 26.6314 212.476 26.5782C212.105 26.4718 211.751 26.5209 211.389 26.5209C209.341 26.5209 207.293 26.5332 205.241 26.5373C205.064 26.5373 204.857 26.5578 204.819 26.3041C204.773 26.0094 204.887 25.8089 205.177 25.7148C205.974 25.457 205.978 25.457 205.978 24.6386C205.978 22.2569 205.97 19.8712 205.978 17.4896C205.978 17.1745 205.898 16.9822 205.557 16.9904C204.946 17.0027 204.828 16.6221 204.794 16.1515C204.996 16.0165 205.22 16.1024 205.418 16.0492C205.493 16.0492 205.574 16.041 205.649 16.041H212.767V18.0339C212.582 18.1648 212.4 18.0953 212.232 18.1198C211.709 18.2057 211.515 17.9398 211.545 17.4855C211.574 17.0927 211.393 16.9454 211.022 16.9945C210.302 17.0927 209.581 16.9577 208.861 16.974C208.507 16.9822 208.397 17.0845 208.397 17.4078C208.401 18.4308 208.397 19.4498 208.393 20.4728C208.393 20.5137 208.393 20.5546 208.393 20.5915L208.414 20.5833Z" fill="white"/>
<path d="M201.655 4.82518C201.84 4.30684 202.207 4.08041 202.755 4.14589C202.864 4.83746 202.822 5.5413 202.683 6.23287C202.645 6.4252 202.409 6.44975 202.211 6.45384C201.967 6.45384 201.815 6.33926 201.764 6.11829C201.726 5.96279 201.798 5.76637 201.571 5.69271C201.528 5.6436 201.482 5.63542 201.423 5.67225C200.698 5.6968 199.961 5.58631 199.244 5.77455C199.388 6.92034 199.286 8.03749 199.324 9.15055C199.341 9.64979 199.438 9.89532 200.028 9.85439C200.723 9.8012 201.431 9.82166 202.131 9.85849C202.569 9.88304 202.835 9.80938 202.86 9.32242C202.868 9.126 202.978 8.93776 203.05 8.72906H204.027C204.213 9.35516 204.255 9.99762 204.069 10.6442C203.994 10.6728 203.918 10.7015 203.842 10.726C203.783 10.726 203.728 10.726 203.669 10.726C203.623 10.6646 203.572 10.6605 203.522 10.726C201.174 10.7342 198.827 10.7465 196.476 10.7465C196.231 10.7465 195.886 10.8938 195.848 10.4314C195.814 10.0426 195.983 9.94442 196.353 9.91168C196.695 9.88304 196.889 9.71526 196.922 9.28559C197.108 6.92444 196.969 4.56328 197.002 2.20213C197.015 1.40008 196.935 1.34688 196.134 1.1259C195.683 0.999048 195.898 0.643033 195.844 0.299295C198.321 0.299295 200.766 0.299295 203.214 0.299295C203.256 0.299295 203.298 0.295203 203.34 0.291111C203.64 0.254282 203.749 0.389322 203.741 0.667586C203.732 1.17501 203.741 1.67834 203.741 2.18985C203.56 2.25124 203.408 2.31671 203.244 2.35354C202.662 2.48449 202.472 2.34945 202.493 1.76018C202.506 1.37552 202.409 1.1259 201.967 1.13C201.929 1.08907 201.887 1.0768 201.84 1.11772C201.111 1.06861 200.386 1.0768 199.657 1.11363C199.577 1.05634 199.497 1.04815 199.417 1.12181C199.274 1.17501 199.27 1.28959 199.274 1.41235C199.286 2.44357 199.303 3.47478 199.308 4.50599C199.308 4.73515 199.367 4.8661 199.619 4.85792C199.662 4.90293 199.708 4.91111 199.763 4.87429C200.243 4.8661 200.723 4.85792 201.208 4.84564C201.25 4.89065 201.297 4.89884 201.343 4.85792C201.406 4.8661 201.469 4.87838 201.528 4.88656C201.571 4.8661 201.613 4.84564 201.655 4.82518Z" fill="white"/>
<path d="M238.933 10.665C238.651 10.3253 238.735 10.0471 239.156 9.94066C239.734 9.79743 239.805 9.63375 239.557 9.11814C239.375 8.74167 239.194 8.3611 239.042 7.97235C238.967 7.78002 238.882 7.64089 238.651 7.63679C238.604 7.62861 238.554 7.62452 238.507 7.61633C237.357 7.64498 236.198 7.64907 235.056 7.61633C234.348 7.59587 234.259 7.92324 234.066 8.32427C233.901 8.65573 233.737 8.99129 233.615 9.33912C233.509 9.64193 233.53 9.90792 233.977 9.94475C234.221 9.96521 234.508 10.043 234.508 10.3376C234.508 10.6691 234.184 10.7263 233.939 10.7386C233.273 10.7632 232.607 10.7509 231.937 10.7386C231.689 10.7386 231.482 10.6281 231.457 10.3581C231.432 10.0716 231.659 9.9693 231.895 9.94884C232.182 9.92838 232.338 9.77697 232.46 9.556C233.459 7.74319 234.213 5.82399 235.144 3.97844C235.549 3.17638 235.932 2.36614 236.32 1.5559C236.43 1.32674 236.522 1.09349 236.615 0.856151C236.733 0.549242 236.758 0.205504 237.251 0.19732C237.728 0.193227 237.846 0.422386 238.052 0.798861C238.882 2.30885 239.498 3.91297 240.298 5.43114C240.833 6.45008 241.242 7.52631 241.744 8.56161C241.921 8.92581 242.102 9.29001 242.304 9.63784C242.485 9.94884 242.831 10.0552 243.206 10.0389C243.316 10.2435 243.265 10.4399 243.223 10.6813C241.841 10.6813 240.458 10.6813 239.076 10.6813C239.03 10.6731 238.983 10.665 238.933 10.6568V10.665ZM238.347 6.65059C237.863 5.59073 237.403 4.57998 236.94 3.56923C236.876 3.43419 236.826 3.28278 236.619 3.28278C236.4 3.28278 236.362 3.44237 236.32 3.5815C236.105 4.28944 235.688 4.90326 235.376 5.56618C235.199 5.93856 234.955 6.29458 234.938 6.73653C236.084 6.87157 237.192 6.65878 238.347 6.65059Z" fill="white"/>
<path d="M178.035 10.7095C178.035 10.7095 178.001 10.7013 177.984 10.6972C177.731 10.6317 177.323 10.7095 177.339 10.3371C177.352 9.99743 177.723 9.97288 178.018 9.93196C178.507 9.86239 178.591 9.71099 178.38 9.28131C178.208 8.92939 177.984 8.59793 177.849 8.23373C177.66 7.72631 177.327 7.56671 176.779 7.58717C175.675 7.6281 174.567 7.59945 173.462 7.58717C173.252 7.58717 173.079 7.60354 172.986 7.81633C172.759 8.33194 172.506 8.83936 172.299 9.36315C172.118 9.82556 172.232 9.97697 172.729 10.0343C172.94 10.0588 173.193 10.0465 173.184 10.333C173.176 10.5908 172.953 10.6399 172.729 10.6481C172.009 10.6726 171.292 10.7054 170.572 10.7095C170.336 10.7095 170.049 10.6972 170.036 10.3534C170.028 10.067 170.247 9.97288 170.483 9.94833C171.018 9.89104 171.187 9.49001 171.372 9.10535C172.628 6.49458 173.88 3.88381 175.135 1.27303C175.245 1.04387 175.367 0.814716 175.494 0.589649C175.801 0.049489 176.315 0.0208441 176.623 0.561004C176.893 1.0316 177.091 1.53902 177.318 2.03008C177.845 3.16768 178.364 4.30939 178.907 5.4429C179.577 6.83422 180.281 8.21736 180.959 9.60459C181.149 9.99334 181.461 10.0956 181.861 10.022C182.03 10.6767 181.971 10.7545 181.322 10.7504C180.272 10.7463 179.219 10.734 178.17 10.7217C178.123 10.7176 178.077 10.7136 178.035 10.7054V10.7095ZM177.078 6.67872C177.078 6.67872 177.116 6.67872 177.137 6.67872C177.129 6.66645 177.116 6.65826 177.108 6.64599C177.125 6.55187 177.099 6.47821 177.007 6.43729C176.526 5.43881 176.046 4.43624 175.565 3.43776C175.506 3.315 175.464 3.1595 175.283 3.19224C175.152 3.21679 175.047 3.26999 174.984 3.42549C174.567 4.41169 174.133 5.38561 173.698 6.36363C173.644 6.48639 173.559 6.60507 173.656 6.71965H176.564C176.61 6.71965 176.661 6.71965 176.712 6.71965C176.813 6.70737 176.918 6.69509 177.019 6.68282L177.053 6.69918L177.082 6.67872H177.078Z" fill="white"/>
<path d="M242.401 42.3364C241.921 42.32 241.436 42.2996 240.956 42.2832C240.914 42.2832 240.876 42.2832 240.834 42.2791C240.627 42.2791 240.421 42.2791 240.218 42.2791C240.143 42.2791 240.067 42.2791 239.995 42.2791C239.932 42.2791 239.864 42.2791 239.801 42.2791C239.725 42.2791 239.649 42.2791 239.574 42.2791C239.51 42.2791 239.443 42.2791 239.38 42.2791C239.338 42.2791 239.295 42.2791 239.258 42.2791C239.085 42.2791 238.908 42.275 238.735 42.2791C238.503 42.2914 238.33 42.2587 238.309 41.9722C238.288 41.7103 238.368 41.5425 238.634 41.4812C238.752 41.4525 238.874 41.4484 238.992 41.4116C239.194 41.3502 239.338 41.2234 239.266 41.0024C239.055 40.3435 238.764 39.7175 238.339 39.1568C238.305 39.1077 238.259 39.0914 238.2 39.12C236.978 39.1118 235.756 39.1036 234.533 39.0995C234.449 39.0668 234.365 39.0627 234.285 39.1118C233.969 39.1446 233.796 39.341 233.686 39.6111C233.501 40.0612 233.408 40.5359 233.185 40.9778C232.987 41.3666 233.413 41.4157 233.632 41.5057C234.108 41.7021 234.158 41.8699 233.796 42.275C233.754 42.2791 233.712 42.2873 233.665 42.2914C233.181 42.2832 232.696 42.275 232.212 42.2668C232.169 42.2668 232.131 42.2668 232.089 42.2668C231.845 42.2628 231.596 42.2546 231.352 42.2505C231.128 42.2505 230.989 42.1277 230.947 41.9272C230.897 41.6939 231.048 41.5548 231.259 41.5384C231.874 41.4934 232.072 41.0515 232.292 40.5973C233.56 37.9824 234.837 35.3757 236.11 32.7608C236.169 32.6422 236.19 32.503 236.228 32.3762C236.325 32.0611 236.421 31.791 236.872 31.791C237.277 31.791 237.441 31.9465 237.601 32.2862C238.963 35.1793 240.353 38.0601 241.727 40.9492C241.849 41.2029 242.03 41.3543 242.3 41.4239C242.907 41.5876 242.958 41.698 242.747 42.3241C242.633 42.2791 242.515 42.2546 242.405 42.3282L242.401 42.3364ZM237.707 38.3343C237.854 38.2893 238.061 38.2688 237.896 38.0438C237.572 37.5977 237.483 37.0535 237.214 36.5788C236.889 36.0059 236.577 35.4248 236.383 34.7987C236.03 34.7292 235.949 34.9911 235.853 35.1957C235.435 36.1 235.048 37.0167 234.618 37.9169C234.445 38.2811 234.571 38.3711 234.925 38.3671C235.802 38.3548 236.678 38.3466 237.559 38.3384L237.707 38.3261V38.3343Z" fill="white"/>
<path d="M231.706 16.491C231.714 16.9657 231.706 17.4445 231.735 17.9192C231.756 18.2343 231.659 18.4307 231.322 18.4184C231.006 18.4102 230.597 18.6025 230.505 18.0501C230.433 17.6245 230.357 17.1949 229.906 16.9207C229.536 16.6956 228.356 16.6792 227.955 17.0516C227.424 17.5509 227.146 18.3202 227.487 18.8767C227.846 19.4619 228.478 19.7852 229.051 20.1494C229.763 20.5995 230.488 21.0374 231.213 21.467C232.414 22.1831 232.473 23.685 232.157 24.5443C231.714 25.7515 230.779 26.353 229.506 26.6517C228.225 26.9546 226.99 26.709 225.743 26.5781C225.414 26.5453 225.17 26.3407 225.224 25.9152C225.275 25.4978 225.25 25.0599 225.199 24.6384C225.144 24.1596 225.317 23.9714 225.81 24.0369C225.979 24.0614 226.156 24.0369 226.291 24.0369C226.451 24.2087 226.404 24.3724 226.404 24.5197C226.425 25.4241 227.083 25.997 228.111 25.997C229.08 25.997 229.784 25.2972 229.906 24.4788C230.088 23.2512 229.228 22.8133 228.406 22.2854C227.597 21.7657 226.784 21.2624 226.059 20.624C224.854 19.5601 224.967 17.3913 226.434 16.4746C227.584 15.7544 228.794 15.7953 230.02 15.9181C230.576 15.9754 231.217 15.9304 231.685 16.3723C231.693 16.4092 231.702 16.4501 231.714 16.4869L231.706 16.491Z" fill="white"/>
<path d="M197.335 16.053C197.525 16.0693 197.714 16.0816 197.896 16.098C198.022 16.8182 197.997 16.8428 196.918 16.9246C197.828 19.0689 198.722 21.1681 199.636 23.3165C199.889 23.1201 199.99 22.9359 200.066 22.7313C200.374 21.917 200.647 21.0904 201.01 20.2965C201.444 19.3471 201.836 18.3855 202.19 17.4075C202.299 17.1087 202.337 16.9287 201.933 16.8796C201.414 16.8182 201.339 16.7036 201.347 16.0775C202.299 16.0161 203.256 16.0039 204.213 16.0448C204.529 16.0571 204.482 16.2985 204.495 16.499C204.508 16.6995 204.487 16.8919 204.204 16.8714C203.568 16.8264 203.349 17.1742 203.184 17.7185C203.007 18.3118 202.658 18.8561 202.409 19.4331C201.6 21.3073 200.799 23.1855 199.998 25.0597C199.834 25.4485 199.607 25.8127 199.493 26.226C199.438 26.4224 199.341 26.6229 199.071 26.6025C198.814 26.582 198.557 26.6802 198.359 26.3488C197.879 25.5426 197.647 24.6423 197.242 23.8075C196.421 22.1011 195.839 20.2965 194.958 18.6106C194.748 18.2095 194.609 17.7635 194.394 17.3543C194.242 17.0637 194.023 16.8878 193.703 16.896C193.336 16.9041 193.332 16.6913 193.319 16.4335C193.306 16.1266 193.458 16.0734 193.736 16.0653C194.891 16.0366 196.05 15.9711 197.205 16.0407C197.247 16.0448 197.289 16.0489 197.331 16.053H197.335Z" fill="white"/>
<path d="M244.74 16.9988C244.668 17.142 244.668 17.2934 244.668 17.4489C244.668 19.765 244.664 22.0812 244.66 24.3973C244.66 24.6019 244.677 24.8065 244.677 25.0111C244.677 25.5472 244.951 25.8009 245.503 25.7968C245.773 25.7968 246 25.9073 245.987 26.206C245.975 26.5088 245.714 26.5088 245.486 26.5088C243.99 26.5088 242.49 26.558 240.998 26.4802C240.888 25.8459 240.981 25.7191 241.638 25.6986C242.102 25.6822 242.325 25.5267 242.321 25.0234C242.3 22.519 242.304 20.0147 242.321 17.5103C242.321 17.1011 242.191 16.9619 241.782 16.9865C241.31 17.011 240.834 17.0192 240.362 16.9701C239.818 16.9169 239.654 17.2197 239.578 17.6371C239.426 18.4883 239.43 18.4883 238.491 18.3819C238.427 17.6085 238.335 16.8269 238.617 16.0576C238.659 16.0576 238.697 16.0576 238.739 16.0576C239.118 16.0576 239.502 16.0576 239.881 16.0576C240.134 16.1067 240.383 16.1108 240.636 16.0576C240.699 16.0576 240.762 16.0576 240.829 16.0535C240.905 16.0535 240.985 16.0494 241.061 16.0453C241.124 16.0453 241.188 16.0453 241.251 16.0412C241.327 16.0412 241.407 16.0412 241.483 16.0412C241.719 16.0412 241.959 16.0412 242.195 16.0453C242.237 16.0453 242.283 16.0412 242.325 16.0371H248.537C248.537 16.7655 248.537 17.4407 248.537 18.1159C248.537 18.3737 248.335 18.4105 248.154 18.431C247.913 18.4596 247.669 18.4392 247.412 18.4392C247.361 18.0995 247.269 17.7844 247.277 17.4734C247.285 17.0929 247.096 17.0069 246.763 17.0069C246.202 16.9988 245.642 16.9783 245.081 16.9619C244.955 16.8965 244.829 16.8433 244.744 17.0192L244.74 16.9988Z" fill="white"/>
<path d="M259.178 16.0529C259.388 16.0979 259.721 15.9547 259.713 16.3516C259.704 16.679 259.582 16.9081 259.182 16.8917C258.895 16.8795 258.689 17.0186 258.533 17.2559C257.572 18.7168 256.607 20.1818 255.629 21.6304C255.49 21.835 255.478 22.0437 255.478 22.2565C255.478 23.1609 255.49 24.0611 255.49 24.9655C255.49 25.3747 255.659 25.6734 256.08 25.7471C256.535 25.8248 256.59 26.0827 256.493 26.4837H251.955C251.828 26.0335 251.95 25.7757 252.427 25.6939C252.844 25.6202 253.033 25.3583 253.025 24.9328C253.012 24.098 253.021 23.2632 253.025 22.4284C253.029 21.921 252.726 21.5118 252.494 21.1107C251.74 19.8053 250.897 18.5531 250.117 17.2641C249.923 16.9409 249.591 16.9818 249.325 16.8549C248.887 16.6503 248.845 16.6217 248.857 16.0856C250.248 16.0119 251.647 15.9956 253.042 16.0406C253.118 16.0447 253.194 16.0488 253.274 16.0529C253.392 16.0651 253.514 16.0774 253.628 16.0897C253.704 16.8099 253.257 16.9449 252.481 16.8917C253.312 18.3199 254.294 19.5025 254.951 20.8529C255.145 20.8038 255.254 20.7179 255.326 20.5992C255.962 19.5844 256.599 18.5695 257.235 17.5547C257.45 17.215 257.471 16.9818 256.974 16.859C256.51 16.7444 256.565 16.4007 256.738 16.061C256.776 16.061 256.818 16.061 256.856 16.061C257.307 16.0529 257.758 16.0447 258.208 16.0406C258.423 16.1102 258.643 16.0979 258.857 16.057C258.921 16.057 258.988 16.057 259.051 16.057C259.093 16.057 259.131 16.057 259.173 16.057L259.178 16.0529Z" fill="white"/>
<path d="M223.968 6.77339C224.031 7.56317 224.263 8.31203 224.811 8.8972C225.422 9.55194 226.248 9.90796 227.15 10.0184C228.123 10.1371 229.042 9.8875 229.931 9.5233C230.138 9.43736 230.344 9.35552 230.547 9.27368C230.951 9.89977 230.778 10.3417 230.112 10.5177C229.088 10.7837 228.056 11.1069 226.994 11.0456C224.668 10.9064 222.712 10.0716 221.714 7.8619C221.305 6.95344 221.415 5.9386 221.372 4.96467C221.309 3.46287 221.958 2.25569 223.092 1.29404C224.091 0.451066 225.292 0.090959 226.611 0.0950511C226.653 0.0950511 226.695 0.090959 226.733 0.0868669C226.796 0.0868669 226.859 0.0827747 226.922 0.0786826C227.142 0.13188 227.356 0.140064 227.576 0.0664062C227.778 0.0745905 227.984 0.0786826 228.187 0.0868669C228.229 0.0868669 228.267 0.0950511 228.309 0.0950511C228.903 0.205538 229.493 0.320118 230.087 0.418329C230.437 0.475618 230.665 0.59429 230.622 0.99941C230.593 1.30223 230.622 1.61323 230.622 1.91604C230.622 2.64444 230.294 2.8736 229.586 2.66899C229.282 2.57897 229.308 2.28024 229.303 2.12474C229.303 1.30223 228.709 1.10171 228.077 0.983041C227.479 0.868462 226.851 0.860278 226.252 0.983041C225.27 1.19174 224.697 1.91604 224.348 2.73038C223.817 3.97438 223.829 5.30841 223.96 6.63835C223.905 6.68746 223.918 6.73247 223.973 6.7693L223.968 6.77339Z" fill="white"/>
<path d="M192.177 16.0336C192.366 16.0499 192.56 16.0663 192.754 16.0827C192.948 16.5656 192.741 16.8152 192.269 16.9257C191.848 17.0239 191.726 17.2694 191.73 17.6991C191.755 20.0316 191.751 22.3641 191.738 24.7007C191.738 25.2368 191.844 25.6419 192.484 25.7319C192.771 25.7728 192.834 25.9938 192.805 26.2352C192.762 26.5503 192.425 26.6035 192.248 26.579C191.081 26.4276 189.909 26.579 188.742 26.5135C188.498 26.5012 188.173 26.579 188.14 26.1943C188.106 25.8342 188.384 25.7565 188.658 25.6951C189.142 25.5887 189.336 25.2777 189.341 24.8235C189.341 22.4377 189.332 20.0561 189.341 17.6704C189.341 17.1548 189.041 16.9625 188.595 16.9052C188.283 16.8643 188.199 16.6597 188.152 16.4182C188.106 16.1891 188.228 16.0663 188.472 16.0581C188.582 16.054 188.696 16.0459 188.805 16.0418C189.85 16.0377 190.9 16.0295 191.945 16.0254C192.025 16.0254 192.101 16.0336 192.181 16.0377L192.177 16.0336Z" fill="white"/>
<path d="M233.897 16.0293C234.905 16.0293 235.908 16.0293 236.915 16.0293C237.029 16.0907 237.147 16.0825 237.269 16.0457C237.492 16.0866 237.842 15.9884 237.842 16.3198C237.842 16.5858 237.72 16.8559 237.324 16.8968C236.822 16.9459 236.611 17.2487 236.616 17.7603C236.637 20.1951 236.641 22.6299 236.624 25.0647C236.624 25.5558 236.894 25.7522 237.294 25.7808C237.656 25.8054 237.901 25.9159 237.842 26.2637C237.779 26.6197 237.412 26.5665 237.147 26.5542C235.975 26.4928 234.799 26.5133 233.632 26.5501C233.333 26.5583 233.114 26.5297 233.063 26.235C233.008 25.924 233.27 25.7153 233.514 25.7194C234.218 25.7194 234.31 25.2734 234.31 24.7823C234.323 22.5153 234.319 20.2524 234.31 17.9853C234.31 17.7357 234.239 17.4902 234.201 17.2406C234.159 16.9746 233.944 16.995 233.754 17.0032C233.438 17.0155 233.248 16.8354 233.173 16.5899C233.05 16.193 233.27 16.0252 233.67 16.0539C233.746 16.0498 233.826 16.0416 233.902 16.0375L233.897 16.0293Z" fill="white"/>
<path d="M180.319 40.8563C180.323 41.1345 180.487 41.286 180.744 41.3719C180.892 41.421 181.031 41.4987 181.178 41.5397C181.423 41.6051 181.444 41.7606 181.423 41.9693C181.397 42.2108 181.258 42.2762 181.031 42.2762C180.504 42.2722 179.977 42.2885 179.45 42.2762C178.734 42.2517 178.022 42.3131 177.305 42.3663C176.994 42.3908 176.808 42.2558 176.779 41.9448C176.753 41.6665 176.871 41.4946 177.175 41.4455C177.668 41.3678 177.904 41.1141 177.9 40.5985C177.887 38.3151 177.908 36.0317 177.904 33.7483C177.904 33.2818 177.887 32.8275 177.23 32.7211C177.069 32.6925 176.703 32.5329 176.8 32.2137C176.884 31.9314 177.061 31.7636 177.445 31.7718C178.717 31.8045 179.994 31.784 181.258 31.784C181.334 32.1155 181.322 32.3488 181.292 32.5779C180.074 32.9503 180.264 32.6639 180.264 33.9242C180.264 36.1913 180.285 38.4542 180.302 40.7212C180.306 40.7663 180.314 40.8154 180.319 40.8604V40.8563Z" fill="white"/>
<path d="M219.86 10.6924C218.667 10.7129 217.474 10.7333 216.282 10.7456C216.13 10.7456 215.949 10.7865 215.835 10.6515C215.717 10.5082 215.629 10.3364 215.667 10.14C215.713 9.89852 215.919 9.95581 216.088 9.93944C216.674 9.89034 216.783 9.7512 216.821 9.1824C216.948 7.27956 216.901 5.37264 216.893 3.4698C216.893 2.86007 216.834 2.25035 216.826 1.64062C216.821 1.21095 216.505 1.15366 216.189 1.10865C215.734 1.04317 215.544 0.830381 215.709 0.335235C217.205 0.216563 218.722 0.286129 220.264 0.331143V0.969513C219.244 1.37054 219.236 1.37054 219.232 2.51224C219.223 4.64424 219.219 6.77214 219.236 8.90414C219.244 9.85351 219.303 9.89443 220.285 10.0909C220.214 10.3036 220.496 10.6597 219.982 10.676C219.94 10.6801 219.898 10.6883 219.855 10.6924H219.86Z" fill="white"/>
<path d="M243.357 42.2791C243.155 41.6121 243.18 41.5752 243.804 41.4402C244.47 41.297 244.365 40.7241 244.398 40.2944C244.457 39.5824 244.415 38.8663 244.415 38.1501C244.415 36.6688 244.398 35.1874 244.415 33.7061C244.424 33.17 244.28 32.814 243.686 32.7199C243.518 32.6912 243.332 32.6258 243.21 32.5194C243.075 32.4007 243.138 32.1961 243.168 32.0365C243.193 31.8769 243.357 31.8442 243.496 31.836C244.912 31.7419 246.328 31.7582 247.765 31.8564V32.5971C247.74 32.6176 247.715 32.6421 247.685 32.6503C246.699 32.9245 246.619 33.0718 246.632 34.0826C246.657 36.1245 246.649 38.1706 246.653 40.2126C246.644 40.2289 246.632 40.2453 246.636 40.2576C246.64 40.2903 246.657 40.319 246.665 40.3517C246.805 41.3052 246.826 41.3256 247.736 41.5098C247.833 41.7471 247.778 42.0008 247.77 42.2504C247.631 42.2668 247.491 42.2832 247.352 42.2995C246.939 42.2995 246.522 42.2995 246.109 42.2995C246.033 42.2995 245.957 42.2914 245.882 42.2914C245.536 42.2914 245.191 42.2914 244.845 42.2914C244.803 42.2914 244.765 42.2914 244.723 42.2914C244.622 42.2914 244.525 42.2914 244.424 42.2914C244.381 42.2914 244.343 42.2914 244.301 42.2914C244.2 42.2914 244.103 42.2914 244.002 42.2954C243.787 42.2954 243.572 42.2954 243.353 42.2914L243.357 42.2791Z" fill="white"/>
<path d="M139.968 17.2317C139.707 16.7325 139.867 16.1719 139.707 15.6562C140.044 16.1432 140.044 16.6793 139.968 17.2317Z" fill="white"/>
<path d="M240.635 16.0459C240.382 16.1032 240.134 16.0991 239.881 16.0459C240.134 15.9436 240.382 15.9477 240.635 16.0459Z" fill="white"/>
<path d="M258.862 16.0487C258.643 16.0896 258.428 16.1019 258.213 16.0323C258.432 15.9464 258.651 15.9382 258.862 16.0487Z" fill="white"/>
<path d="M191.634 3.17638C191.642 3.08636 191.672 2.97178 191.777 3.02907C191.92 3.11091 191.857 3.26232 191.828 3.39326C191.764 3.31961 191.701 3.24595 191.634 3.17638Z" fill="white"/>
<path d="M12.6811 41.8628C12.6301 41.65 12.6174 41.4372 12.6938 41.2285C12.783 41.4413 12.7915 41.6541 12.6811 41.8628Z" fill="white"/>
<path d="M243.357 42.2793C243.572 42.2793 243.787 42.2793 244.006 42.2834C243.791 42.3898 243.572 42.4225 243.357 42.2793Z" fill="white"/>
<path d="M227.571 0.0655669C227.356 0.139225 227.137 0.131041 226.918 0.0778432C227.133 -0.032644 227.352 -0.0203677 227.571 0.0655669Z" fill="white"/>
<path d="M93.8915 0.93804C93.8406 0.762079 93.8576 0.586117 93.8915 0.410156C94.0189 0.586117 93.9765 0.762079 93.8915 0.93804Z" fill="white"/>
<path d="M186.694 16.0489C186.509 16.0857 186.327 16.0939 186.15 16.0284C186.336 15.9425 186.517 15.9384 186.694 16.0489Z" fill="white"/>
<path d="M191.848 3.79297C191.995 3.85844 192 3.92392 191.856 3.99757C191.747 3.9321 191.73 3.86663 191.848 3.79297Z" fill="white"/>
<path d="M210.172 21.4174C210.324 21.3887 210.48 21.3315 210.589 21.5033C210.45 21.4829 210.294 21.5238 210.172 21.4174Z" fill="white"/>
<path d="M208.414 23.7433C208.342 23.7351 208.283 23.6983 208.304 23.6246C208.313 23.5919 208.372 23.5714 208.409 23.5469C208.506 23.6123 208.511 23.6778 208.418 23.7474L208.414 23.7433Z" fill="white"/>
<path d="M152.56 0.515625C152.713 0.638389 152.666 0.789797 152.632 0.941205C152.518 0.81435 152.556 0.662941 152.56 0.515625Z" fill="white"/>
<path d="M154.334 42.328C154.477 42.2666 154.629 42.2871 154.776 42.3076C154.633 42.4221 154.486 42.3894 154.334 42.328Z" fill="white"/>
<path d="M247.361 42.2913C247.5 42.2749 247.639 42.2586 247.779 42.2422C247.661 42.4059 247.513 42.3731 247.361 42.2913Z" fill="white"/>
<path d="M237.264 16.0446C237.146 16.0814 237.024 16.0896 236.91 16.0282C237.032 15.9628 237.15 15.9505 237.264 16.0446Z" fill="white"/>
<path d="M188.802 16.0368C188.692 16.0408 188.578 16.049 188.469 16.0531C188.574 15.9631 188.684 15.9508 188.802 16.0368Z" fill="white"/>
<path d="M242.401 42.3376C242.515 42.2598 242.629 42.2885 242.743 42.3335C242.629 42.399 242.515 42.3867 242.401 42.3376Z" fill="white"/>
<path d="M269.755 41.9316C269.776 42.038 269.798 42.1485 269.819 42.2549C269.623 42.1813 269.696 42.0544 269.755 41.9316Z" fill="white"/>
<path d="M152.633 41.9492C152.645 42.0515 152.662 42.1497 152.675 42.252C152.509 42.1702 152.539 42.0638 152.633 41.9492Z" fill="white"/>
<path d="M97.0526 39.6191C97.0229 39.7214 96.9889 39.8237 96.9592 39.9301C96.921 39.8074 96.8658 39.6805 97.0526 39.6191Z" fill="white"/>
<path d="M185.75 0.275069C185.632 0.311898 185.514 0.31599 185.4 0.250516C185.523 0.197319 185.641 0.185042 185.75 0.275069Z" fill="white"/>
<path d="M208.507 21.5048C208.566 21.3248 208.696 21.3903 208.819 21.4148C208.713 21.4435 208.612 21.4762 208.507 21.5048Z" fill="white"/>
<path d="M244.74 16.9985C244.825 16.8225 244.951 16.8798 245.077 16.9412C244.964 16.9617 244.854 16.978 244.74 16.9985Z" fill="white"/>
<path d="M214.508 16.042C214.398 16.042 214.284 16.0461 214.175 16.0502C214.284 15.956 214.394 15.956 214.508 16.042Z" fill="white"/>
<path d="M205.119 10.6604C205.212 10.6359 205.288 10.6563 205.355 10.7218C205.258 10.7668 205.182 10.7341 205.119 10.6604Z" fill="white"/>
<path d="M209.763 20.7627C209.687 20.7586 209.611 20.7545 209.535 20.7504C209.615 20.6686 209.691 20.6604 209.763 20.7627Z" fill="white"/>
<path d="M245.886 42.2793C245.962 42.2793 246.037 42.2875 246.113 42.2875C246.033 42.3652 245.957 42.353 245.886 42.2793Z" fill="white"/>
<path d="M239.986 42.2793C240.062 42.2793 240.138 42.2793 240.21 42.2793C240.134 42.357 240.058 42.357 239.986 42.2793Z" fill="white"/>
<path d="M179.105 16.0623C179.025 16.0418 178.949 16.0214 178.869 15.9968C178.966 15.9559 179.046 15.9682 179.105 16.0623Z" fill="white"/>
<path d="M239.565 42.2793C239.641 42.2793 239.717 42.2793 239.793 42.2793C239.717 42.353 239.641 42.357 239.565 42.2793Z" fill="white"/>
<path d="M185.013 16.0372C184.937 16.0372 184.857 16.0372 184.781 16.0413C184.857 15.9635 184.933 15.9635 185.013 16.0372Z" fill="white"/>
<path d="M199.952 42.2795C200.028 42.2795 200.104 42.2795 200.175 42.2754C200.104 42.3531 200.028 42.3572 199.952 42.2795Z" fill="white"/>
<path d="M33.4941 42.2754H33.7175C33.6458 42.345 33.57 42.349 33.4941 42.2754Z" fill="white"/>
<path d="M194.02 9.34551C193.947 9.25957 193.947 9.17773 194.02 9.0918C194.067 9.17773 194.067 9.25957 194.02 9.34551Z" fill="white"/>
<path d="M192.177 16.0337C192.097 16.0337 192.021 16.0255 191.941 16.0214C192.021 15.9519 192.102 15.9519 192.177 16.0337Z" fill="white"/>
<path d="M33.0723 42.2914C33.1481 42.2914 33.224 42.2873 33.304 42.2832C33.2324 42.365 33.1523 42.365 33.0723 42.2914Z" fill="white"/>
<path d="M12.626 42.2513C12.643 42.1858 12.6599 42.1163 12.6727 42.0508C12.7491 42.1408 12.7406 42.2063 12.626 42.2513Z" fill="white"/>
<path d="M205.662 16.0367C205.587 16.0367 205.507 16.0449 205.431 16.0449C205.502 15.963 205.582 15.963 205.662 16.0367Z" fill="white"/>
<path d="M97.0187 41.334C97.0187 41.4036 97.0187 41.4772 97.0187 41.5468C96.9456 41.4772 96.9456 41.4036 97.0187 41.334Z" fill="white"/>
<path d="M66.9124 0.279016C66.8366 0.279016 66.7565 0.279016 66.6807 0.279016C66.7565 0.201266 66.8366 0.201266 66.9124 0.279016Z" fill="white"/>
<path d="M234.276 39.1245C234.356 39.0754 234.441 39.0754 234.525 39.1122C234.445 39.1818 234.365 39.1818 234.276 39.1245Z" fill="white"/>
<path d="M154.566 0.269979C154.49 0.269979 154.41 0.278163 154.334 0.282255C154.41 0.204505 154.486 0.200413 154.566 0.269979Z" fill="white"/>
<path d="M233.897 16.0279C233.821 16.032 233.741 16.0402 233.665 16.0443C233.737 15.9665 233.813 15.9583 233.897 16.0279Z" fill="white"/>
<path d="M270.256 0.257486C270.181 0.318868 270.096 0.32296 270.008 0.282038C270.084 0.212472 270.168 0.20838 270.256 0.257486Z" fill="white"/>
<path d="M241.061 16.0332C240.985 16.0332 240.905 16.0373 240.829 16.0414C240.905 15.9637 240.981 15.9596 241.061 16.0332Z" fill="white"/>
<path d="M241.483 16.024C241.407 16.024 241.327 16.024 241.251 16.024C241.327 15.9503 241.407 15.9503 241.483 16.024Z" fill="white"/>
<path d="M78.9652 0.396484C78.9737 0.425129 78.9864 0.457866 78.9907 0.486511C78.9907 0.494695 78.9694 0.506972 78.9567 0.519248C78.927 0.498787 78.893 0.482419 78.8633 0.461958C78.8973 0.441498 78.9355 0.416945 78.9694 0.396484H78.9652Z" fill="white"/>
<path d="M177.457 25.1543C177.526 25.2402 177.518 25.3221 177.432 25.3957C177.44 25.3139 177.449 25.2361 177.457 25.1543Z" fill="white"/>
<path d="M253.278 16.049C253.202 16.0449 253.126 16.0408 253.046 16.0367C253.126 15.9631 253.206 15.9671 253.278 16.049Z" fill="white"/>
<path d="M199.421 1.11765C199.501 1.04399 199.581 1.05218 199.661 1.10947C199.581 1.10947 199.501 1.11356 199.421 1.11765Z" fill="white"/>
<path d="M203.838 10.7264C203.914 10.6977 203.99 10.6691 204.065 10.6445C204.019 10.7427 203.939 10.7673 203.838 10.7264Z" fill="white"/>
<path d="M184.6 4.00613C184.6 3.93247 184.6 3.85881 184.6 3.78516C184.681 3.85881 184.681 3.93247 184.6 4.00613Z" fill="white"/>
<path d="M256.861 16.0529C256.823 16.0529 256.78 16.0529 256.742 16.0529C256.78 16.0079 256.823 16.0038 256.861 16.0529Z" fill="white"/>
<path d="M214.896 10.7138C214.955 10.6524 215.001 10.6647 215.047 10.7302C214.997 10.7261 214.946 10.722 214.896 10.7138Z" fill="white"/>
<path d="M184.609 4.62472C184.609 4.5838 184.609 4.54287 184.604 4.50195C184.665 4.53878 184.669 4.5797 184.609 4.62472Z" fill="white"/>
<path d="M201.343 4.85798C201.293 4.90299 201.25 4.89072 201.208 4.8457C201.255 4.8457 201.297 4.85389 201.343 4.85798Z" fill="white"/>
<path d="M78.9356 2.95898C78.9571 3.004 78.9786 3.04492 79.0001 3.08993C78.9356 3.06538 78.9054 3.02446 78.9356 2.95898Z" fill="white"/>
<path d="M231.706 16.4915C231.697 16.4547 231.689 16.4138 231.676 16.377C231.74 16.4015 231.77 16.4383 231.706 16.4915Z" fill="white"/>
<path d="M203.521 10.7222C203.572 10.6609 203.618 10.665 203.669 10.7222C203.618 10.7222 203.572 10.7222 203.521 10.7222Z" fill="white"/>
<path d="M184.63 2.48791C184.63 2.46335 184.634 2.43471 184.638 2.41016C184.647 2.43471 184.655 2.45926 184.663 2.48791H184.63Z" fill="white"/>
<path d="M174.583 17.2041C174.566 17.1304 174.6 17.0977 174.677 17.0977C174.647 17.1345 174.617 17.1713 174.583 17.2041Z" fill="white"/>
<path d="M140.007 17.613C139.994 17.5844 139.977 17.5598 139.964 17.5312C139.964 17.523 139.981 17.5066 139.99 17.4902C139.994 17.5312 139.998 17.5721 140.003 17.613H140.007Z" fill="white"/>
<path d="M177.503 18.5215C177.503 18.5583 177.503 18.5992 177.503 18.6361C177.49 18.6074 177.478 18.5829 177.474 18.5542C177.474 18.546 177.495 18.5297 177.503 18.5215Z" fill="white"/>
<path d="M208.414 20.5835C208.414 20.5426 208.414 20.5017 208.414 20.4648C208.427 20.4935 208.443 20.518 208.448 20.5508C208.448 20.559 208.427 20.5753 208.418 20.5876L208.414 20.5835Z" fill="white"/>
<path d="M208.709 20.7641C208.671 20.7641 208.629 20.7641 208.591 20.76C208.633 20.7109 208.671 20.719 208.709 20.7641Z" fill="white"/>
<path d="M209.03 20.7591C208.992 20.7591 208.949 20.7591 208.911 20.7632C208.949 20.7141 208.987 20.7059 209.03 20.7591Z" fill="white"/>
<path d="M259.178 16.0533C259.136 16.0533 259.098 16.0533 259.056 16.0533C259.098 16.0083 259.136 16.0083 259.178 16.0533Z" fill="white"/>
<path d="M152.64 1.53906C152.64 1.57998 152.64 1.61681 152.64 1.65773C152.627 1.62909 152.615 1.60454 152.606 1.57589C152.606 1.56771 152.627 1.55134 152.636 1.53906H152.64Z" fill="white"/>
<path d="M201.845 1.11703C201.891 1.07611 201.934 1.08839 201.972 1.12931C201.929 1.12521 201.887 1.12112 201.845 1.11703Z" fill="white"/>
<path d="M174.057 16.0364C174.015 16.0364 173.968 16.0364 173.926 16.0323C173.972 15.9709 174.015 15.975 174.057 16.0364Z" fill="white"/>
<path d="M201.423 5.66835C201.478 5.63561 201.528 5.6438 201.57 5.68881C201.52 5.68063 201.473 5.67244 201.423 5.66835Z" fill="white"/>
<path d="M186.066 26.5122C186.079 26.4672 186.097 26.4222 186.109 26.373C186.097 26.4181 186.079 26.4631 186.066 26.5122Z" fill="white"/>
<path d="M269.717 0.511719C269.73 0.540364 269.751 0.564916 269.76 0.593561C269.76 0.601745 269.743 0.618114 269.734 0.634482C269.721 0.605837 269.708 0.581285 269.704 0.55264C269.704 0.540364 269.713 0.523995 269.721 0.511719H269.717Z" fill="white"/>
<path d="M184.909 31.7949C184.867 31.7908 184.82 31.7826 184.777 31.7785C184.828 31.7213 184.875 31.7294 184.909 31.7949Z" fill="white"/>
<path d="M189.86 31.7877C189.818 31.7877 189.771 31.7918 189.729 31.7959C189.767 31.7304 189.813 31.7263 189.86 31.7877Z" fill="white"/>
<path d="M242.326 16.0199C242.284 16.0199 242.237 16.024 242.194 16.0281C242.237 15.9708 242.279 15.9667 242.326 16.0199Z" fill="white"/>
<path d="M225.364 31.7875C225.322 31.7875 225.275 31.7793 225.232 31.7793C225.279 31.722 225.326 31.7302 225.364 31.7875Z" fill="white"/>
<path d="M238.74 16.054C238.698 16.054 238.659 16.054 238.617 16.054C238.655 16.0049 238.698 16.0008 238.74 16.054Z" fill="white"/>
<path d="M254.433 0.307295C254.395 0.307295 254.353 0.303203 254.314 0.299111C254.357 0.233637 254.399 0.241821 254.433 0.307295Z" fill="white"/>
<path d="M251.398 0.258623C251.352 0.262715 251.301 0.270899 251.255 0.274991C251.297 0.225886 251.343 0.217702 251.398 0.258623Z" fill="white"/>
<path d="M246.431 0.303144C246.388 0.294959 246.346 0.286775 246.308 0.282683C246.363 0.221301 246.401 0.249946 246.431 0.303144Z" fill="white"/>
<path d="M205.453 0.286832C205.41 0.286832 205.368 0.290924 205.325 0.295016C205.363 0.237726 205.406 0.22545 205.453 0.286832Z" fill="white"/>
<path d="M203.345 0.286832C203.303 0.286832 203.26 0.290924 203.218 0.295016C203.256 0.237726 203.298 0.22545 203.345 0.286832Z" fill="white"/>
<path d="M238.933 10.6641C238.979 10.6722 239.025 10.6804 239.076 10.6886C239.017 10.7336 238.971 10.7214 238.933 10.6641Z" fill="white"/>
<path d="M219.915 33.3716C219.881 33.3184 219.893 33.2733 219.941 33.2324C219.932 33.2774 219.924 33.3225 219.915 33.3716Z" fill="white"/>
<path d="M79.2428 0.237952C79.1963 0.246136 79.1497 0.250228 79.1074 0.258412C79.1455 0.209307 79.192 0.205215 79.2428 0.237952Z" fill="white"/>
<path d="M219.986 16.0576C219.94 16.0494 219.889 16.0453 219.843 16.0371C219.898 15.9962 219.944 16.0126 219.986 16.0576Z" fill="white"/>
<path d="M238.191 39.1321C238.25 39.0994 238.293 39.1157 238.33 39.1689C238.284 39.1566 238.238 39.1444 238.191 39.1321Z" fill="white"/>
<path d="M219.859 10.6921C219.902 10.6881 219.944 10.6799 219.987 10.6758C219.953 10.7372 219.91 10.7535 219.859 10.6921Z" fill="white"/>
<path d="M246.671 40.3442C246.658 40.3115 246.645 40.2828 246.641 40.2501C246.641 40.2378 246.654 40.2174 246.658 40.2051C246.705 40.2501 246.714 40.2951 246.671 40.3442Z" fill="white"/>
<path d="M180.319 40.8559C180.315 40.8109 180.306 40.7618 180.302 40.7168C180.353 40.7577 180.358 40.8068 180.319 40.8559Z" fill="white"/>
<path d="M97.0092 41.0273C97.0092 41.0683 97.0092 41.1051 97.0092 41.146C96.9966 41.1174 96.984 41.0928 96.9756 41.0642C96.9756 41.056 96.9966 41.0396 97.005 41.0273H97.0092Z" fill="white"/>
<path d="M223.97 6.77157C223.914 6.73065 223.901 6.68973 223.957 6.64062C223.957 6.68564 223.966 6.73065 223.97 6.77157Z" fill="white"/>
<path d="M194.579 10.6722C194.621 10.6722 194.659 10.6682 194.702 10.6641C194.664 10.7091 194.626 10.7214 194.579 10.6722Z" fill="white"/>
<path d="M228.309 0.0983929C228.267 0.0983929 228.229 0.0902087 228.187 0.0902087C228.233 0.0411032 228.271 0.0533796 228.309 0.0983929Z" fill="white"/>
<path d="M238.507 7.61523C238.553 7.62342 238.604 7.62751 238.65 7.63569C238.595 7.67252 238.549 7.66434 238.507 7.61523Z" fill="white"/>
<path d="M197.336 16.0528C197.294 16.0487 197.251 16.0446 197.209 16.0405C197.26 15.9833 197.298 16.0037 197.336 16.0528Z" fill="white"/>
<path d="M169.523 16.0565C169.48 16.0484 169.438 16.0361 169.399 16.0279C169.459 15.9624 169.493 16.0033 169.523 16.0565Z" fill="white"/>
<path d="M153.07 42.2754C153.113 42.2754 153.151 42.2754 153.193 42.2754C153.151 42.3204 153.113 42.3204 153.07 42.2754Z" fill="white"/>
<path d="M153.698 42.2969C153.741 42.2969 153.787 42.2969 153.83 42.301C153.783 42.3583 153.741 42.3542 153.698 42.2969Z" fill="white"/>
<path d="M66.492 0.283088C66.4495 0.283088 66.4028 0.278996 66.3604 0.274904C66.4071 0.217614 66.4538 0.221706 66.492 0.283088Z" fill="white"/>
<path d="M199.211 42.3092C199.253 42.3092 199.3 42.301 199.343 42.2969C199.304 42.3583 199.262 42.3664 199.211 42.3092Z" fill="white"/>
<path d="M199.632 42.2871C199.674 42.2871 199.717 42.2871 199.759 42.2871C199.717 42.3485 199.674 42.3485 199.632 42.2871Z" fill="white"/>
<path d="M178.034 10.709C178.081 10.7131 178.127 10.7172 178.17 10.7254C178.123 10.7213 178.076 10.7172 178.034 10.709Z" fill="white"/>
<path d="M227.555 42.2838C227.597 42.2838 227.635 42.2756 227.677 42.2715C227.639 42.3165 227.601 42.3288 227.555 42.2838Z" fill="white"/>
<path d="M232.085 42.2754C232.127 42.2754 232.165 42.2754 232.208 42.2754C232.165 42.3245 232.127 42.3204 232.085 42.2754Z" fill="white"/>
<path d="M233.661 42.3035C233.704 42.2994 233.746 42.2912 233.793 42.2871C233.759 42.3526 233.716 42.3649 233.661 42.3035Z" fill="white"/>
<path d="M239.249 42.2832C239.291 42.2832 239.334 42.2832 239.372 42.2832C239.33 42.3446 239.287 42.3446 239.249 42.2832Z" fill="white"/>
<path d="M184.588 16.0495C184.545 16.0495 184.507 16.0536 184.465 16.0577C184.503 16.0126 184.545 16.0045 184.588 16.0495Z" fill="white"/>
<path d="M174.79 16.0526C174.747 16.0526 174.709 16.0526 174.667 16.0485C174.709 15.9994 174.752 16.0035 174.79 16.0526Z" fill="white"/>
<path d="M240.829 42.2793C240.871 42.2793 240.909 42.2793 240.952 42.2834C240.909 42.3325 240.867 42.3284 240.829 42.2793Z" fill="white"/>
<path d="M205.848 10.7369C205.89 10.6919 205.932 10.6919 205.979 10.7369C205.936 10.7369 205.89 10.7369 205.848 10.7369Z" fill="white"/>
<path d="M27.3006 0.282683C27.2581 0.274499 27.2114 0.266315 27.1689 0.25813C27.2241 0.209025 27.2666 0.217209 27.3006 0.282683Z" fill="white"/>
<path d="M244.306 42.2793C244.348 42.2793 244.386 42.2793 244.428 42.2793C244.386 42.3366 244.348 42.3366 244.306 42.2793Z" fill="white"/>
<path d="M244.728 42.2793C244.77 42.2793 244.808 42.2793 244.85 42.2793C244.812 42.3284 244.77 42.3284 244.728 42.2793Z" fill="white"/>
<path d="M174.479 16.0445C174.436 16.0445 174.394 16.0445 174.352 16.0445C174.394 15.9831 174.441 15.9872 174.479 16.0445Z" fill="white"/>
<path d="M226.73 0.08566C226.687 0.08566 226.645 0.0897521 226.606 0.0938443C226.645 0.0365546 226.687 0.0242782 226.73 0.08566Z" fill="white"/>
<path d="M199.762 4.87379C199.712 4.91062 199.661 4.90244 199.619 4.85742C199.665 4.86151 199.716 4.86561 199.762 4.87379Z" fill="white"/>
<path d="M109.167 39.1116C109.18 39.0134 109.26 38.997 109.34 38.9766C109.369 39.1239 109.264 39.1116 109.167 39.1116Z" fill="white"/>
<path d="M108.231 16.7617C108.278 16.8108 108.273 16.8558 108.231 16.9009C108.231 16.8558 108.231 16.8108 108.231 16.7617Z" fill="white"/>
<path d="M109.328 38.5896C109.267 38.5445 109.276 38.5077 109.332 38.4668C109.332 38.5077 109.332 38.5486 109.328 38.5896Z" fill="white"/>
<path d="M108.359 38.7559C108.407 38.805 108.402 38.8541 108.346 38.895C108.303 38.8459 108.312 38.7968 108.359 38.7559Z" fill="white"/>
<path d="M104.693 38.9688C104.702 39.0097 104.715 39.0506 104.723 39.0915C104.633 39.067 104.624 39.026 104.693 38.9688Z" fill="white"/>
<path d="M225.17 36.1133C225.234 36.1542 225.234 36.1951 225.17 36.236C225.17 36.1951 225.17 36.1542 225.17 36.1133Z" fill="white"/>
<path d="M177.014 6.68675C177.014 6.60491 177.01 6.52715 177.006 6.44531C177.099 6.48623 177.125 6.55989 177.108 6.65401L177.078 6.68266L177.048 6.70312L177.014 6.68675Z" fill="white"/>
<path d="M176.56 6.72365C176.606 6.68273 176.656 6.67864 176.707 6.72365C176.661 6.72365 176.61 6.72365 176.56 6.72365Z" fill="white"/>
<path d="M177.108 6.65039C177.108 6.65039 177.129 6.67085 177.138 6.68313C177.116 6.68313 177.099 6.68313 177.078 6.68313L177.108 6.65448V6.65039Z" fill="white"/>
<path d="M237.559 38.3435C237.605 38.2985 237.651 38.2903 237.706 38.3312C237.656 38.3312 237.609 38.3394 237.559 38.3435Z" fill="white"/>
</g>
<defs>
<clipPath id="clip0_332_5829">
<rect width="274.34" height="43" fill="white"/>
</clipPath>
</defs>
</svg>
