<svg xmlns="http://www.w3.org/2000/svg" xmlns:xlink="http://www.w3.org/1999/xlink" width="26" height="26" viewBox="0 0 26 26">
  <defs>
    <clipPath id="clip-path">
      <rect id="Rectangle_22" data-name="Rectangle 22" width="26" height="26" transform="translate(17 12)" fill="#fff" stroke="#707070" stroke-width="1"/>
    </clipPath>
  </defs>
  <g id="Mask_Group_4" data-name="Mask Group 4" transform="translate(-17 -12)" clip-path="url(#clip-path)">
    <path id="home2" d="M24.819,11.094l0,0L14.413.688a2.348,2.348,0,0,0-3.321,0l-10.4,10.4L.682,11.1a2.347,2.347,0,0,0,1.563,4q.036,0,.072,0h.415v7.657A2.751,2.751,0,0,0,5.48,25.507H9.551a.747.747,0,0,0,.747-.747v-6A1.255,1.255,0,0,1,11.552,17.5h2.4a1.255,1.255,0,0,1,1.254,1.254v6a.747.747,0,0,0,.747.747h4.071a2.751,2.751,0,0,0,2.748-2.748V15.1h.385a2.348,2.348,0,0,0,1.662-4.008Zm0,0" transform="translate(17.001 12)" fill="#fff"/>
  </g>
</svg>
