<svg xmlns="http://www.w3.org/2000/svg" width="92.754" height="92.74" viewBox="0 0 92.754 92.74">
  <g id="Layer_25" data-name="Layer 25" transform="translate(0)" opacity="0.6">
    <path id="Path_10228" data-name="Path 10228" d="M19,16.216A4.221,4.221,0,0,1,23.216,12h39.35a4.216,4.216,0,0,1,0,8.432H23.216A4.221,4.221,0,0,1,19,16.216Zm44.972,0a1.406,1.406,0,0,0-1.405-1.405H23.216a1.405,1.405,0,0,0,0,2.811h39.35a1.406,1.406,0,0,0,1.405-1.405Z" transform="translate(3.486 0.648)" fill="#1b224c"/>
    <path id="Path_10229" data-name="Path 10229" d="M27.648,23.811H16.405a1.405,1.405,0,0,1,0-2.811H27.648a1.405,1.405,0,0,1,0,2.811Z" transform="translate(46.836 4.297)" fill="#1b224c"/>
    <path id="Path_10230" data-name="Path 10230" d="M27,22.405A1.4,1.4,0,0,1,28.405,21h4.216a1.405,1.405,0,0,1,0,2.811H28.405A1.4,1.4,0,0,1,27,22.405Z" transform="translate(24.998 4.297)" fill="#1b224c"/>
    <path id="Path_10231" data-name="Path 10231" d="M15,26.405A1.4,1.4,0,0,1,16.405,25H38.891a1.405,1.405,0,0,1,0,2.811H16.405A1.4,1.4,0,0,1,15,26.405Z" transform="translate(35.593 5.918)" fill="#1b224c"/>
    <path id="Path_10232" data-name="Path 10232" d="M22.405,36.811a1.405,1.405,0,0,1,0-2.811h8.432a1.405,1.405,0,0,1,0,2.811Z" transform="translate(35.215 9.566)" fill="#1b224c"/>
    <path id="Path_10233" data-name="Path 10233" d="M34.054,42.405a1.4,1.4,0,0,1-1.405,1.405H21.405a1.405,1.405,0,0,1,0-2.811H32.648a1.4,1.4,0,0,1,1.405,1.405Z" transform="translate(34.809 12.404)" fill="#1b224c"/>
    <path id="Path_10234" data-name="Path 10234" d="M35.464,41.836l6.563-5.987V27.417a1.4,1.4,0,0,1,1.405-1.405h8.432l5.987-6.577a1.467,1.467,0,0,1,2.08,0l5.987,6.577H74.35a1.4,1.4,0,0,1,1.405,1.405v8.432l6.563,5.987a1.384,1.384,0,0,1,.464,1.04,1.406,1.406,0,0,1-.464,1.04l-6.563,5.973v8.446a1.41,1.41,0,0,1-1.405,1.405H71.539V87.848a1.4,1.4,0,0,1-.773,1.251,1.43,1.43,0,0,1-1.476-.126l-10.4-7.8-10.4,7.8a1.408,1.408,0,0,1-2.249-1.124V59.741H43.432a1.41,1.41,0,0,1-1.405-1.405V49.889l-6.563-5.973A1.406,1.406,0,0,1,35,42.876a1.384,1.384,0,0,1,.464-1.04Zm13.59,43.2,8.994-6.746a1.391,1.391,0,0,1,1.686,0l8.994,6.746v-25.3H65.918L59.931,66.3a1.4,1.4,0,0,1-2.08,0l-5.987-6.563H49.054Zm9.838-30.918A11.243,11.243,0,1,0,47.648,42.876,11.243,11.243,0,0,0,58.891,54.119Z" transform="translate(-35 3.487)" fill="#1b224c"/>
    <path id="Path_10235" data-name="Path 10235" d="M54.432,29.99A8.432,8.432,0,1,1,46,38.422a8.432,8.432,0,0,1,8.432-8.432Zm0,4.23a4.228,4.228,0,0,1,4.216,4.216,1.405,1.405,0,0,0,2.811,0,7.029,7.029,0,0,0-7.027-7.027,1.405,1.405,0,0,0,0,2.811Z" transform="translate(-30.541 7.941)" fill="#1b224c"/>
    <path id="Path_10236" data-name="Path 10236" d="M58.811,51.391V65.445a1.405,1.405,0,1,1-2.811,0V51.391a1.405,1.405,0,1,1,2.811,0Z" transform="translate(-40.541 16.047)" fill="#1b224c"/>
    <path id="Path_10237" data-name="Path 10237" d="M47.405,49.986a1.4,1.4,0,0,1,1.405,1.405V65.445a1.405,1.405,0,1,1-2.811,0V51.391a1.4,1.4,0,0,1,1.405-1.405Z" transform="translate(-16.487 16.047)" fill="#1b224c"/>
    <path id="Path_10238" data-name="Path 10238" d="M3,7.216v37.72L7.216,41.1V33.9a4.217,4.217,0,0,1,2.811-3.963V22.675a1.41,1.41,0,0,1,1.405-1.405,9.848,9.848,0,0,0,9.838-9.838,1.41,1.41,0,0,1,1.405-1.405h53.4a1.41,1.41,0,0,1,1.405,1.405,9.848,9.848,0,0,0,9.838,9.838,1.41,1.41,0,0,1,1.405,1.405V52.188a1.41,1.41,0,0,1-1.405,1.405,9.848,9.848,0,0,0-9.838,9.838,1.41,1.41,0,0,1-1.405,1.405H46.566a4.226,4.226,0,0,1-4.216,4.2v2.825H91.538a4.229,4.229,0,0,0,4.216-4.216V7.216A4.228,4.228,0,0,0,91.538,3H7.216A4.228,4.228,0,0,0,3,7.216Z" transform="translate(-3 -3)" fill="#1b224c"/>
    <path id="Path_10239" data-name="Path 10239" d="M67.216,42.967,63,39.13V53a4.229,4.229,0,0,0,4.216,4.216h4.216V54.392a4.228,4.228,0,0,1-4.216-4.216Z" transform="translate(-63 11.646)" fill="#1b224c"/>
  </g>
</svg>
