<svg width="29" height="42" viewBox="0 0 29 42" fill="none" xmlns="http://www.w3.org/2000/svg">
<g id="Mobile 3">
<g id="Group">
<path id="Vector" d="M24.3359 0H4.66412C3.3595 0.0783663 2.1385 0.668323 1.26634 1.64172C0.394179 2.61511 -0.0586893 3.89331 0.00610732 5.19867V36.1204C-0.0586893 37.4257 0.394179 38.7039 1.26634 39.6773C2.1385 40.6507 3.3595 41.2407 4.66412 41.319H24.3359C25.6405 41.2407 26.8615 40.6507 27.7337 39.6773C28.6058 38.7039 29.0587 37.4257 28.9939 36.1204V5.19867C29.0587 3.89331 28.6058 2.61511 27.7337 1.64172C26.8615 0.668323 25.6405 0.0783663 24.3359 0ZM26.9144 36.1204C26.9779 36.8742 26.7435 37.6229 26.2615 38.206C25.7795 38.7891 25.0882 39.1601 24.3359 39.2396H4.66412C3.91179 39.1601 3.22053 38.7891 2.73852 38.206C2.25651 37.6229 2.02211 36.8742 2.08558 36.1204V5.19867C2.02211 4.44482 2.25651 3.69611 2.73852 3.11304C3.22053 2.52996 3.91179 2.15892 4.66412 2.07947H7.8457V3.14C7.8457 3.69151 8.06479 4.22043 8.45477 4.6104C8.84474 5.00038 9.37366 5.21946 9.92517 5.21946H19.0748C19.6263 5.21946 20.1553 5.00038 20.5452 4.6104C20.9352 4.22043 21.1543 3.69151 21.1543 3.14V2.07947H24.3359C25.0882 2.15892 25.7795 2.52996 26.2615 3.11304C26.7435 3.69611 26.9779 4.44482 26.9144 5.19867V36.1204Z" fill="#1B224C"/>
<path id="Vector_2" d="M10.341 35.0795H18.6589C18.9346 35.0795 19.1991 34.9699 19.3941 34.7749C19.5891 34.5799 19.6986 34.3155 19.6986 34.0397C19.6986 33.764 19.5891 33.4995 19.3941 33.3045C19.1991 33.1095 18.9346 33 18.6589 33H10.341C10.0652 33 9.80079 33.1095 9.6058 33.3045C9.41081 33.4995 9.30127 33.764 9.30127 34.0397C9.30127 34.3155 9.41081 34.5799 9.6058 34.7749C9.80079 34.9699 10.0652 35.0795 10.341 35.0795Z" fill="#1B224C"/>
</g>
</g>
</svg>
