<svg width="26" height="26" viewBox="0 0 26 26" fill="none" xmlns="http://www.w3.org/2000/svg">
<g id="Page-1">
<g id="add">
<path id="Combined-Shape" fill-rule="evenodd" clip-rule="evenodd" d="M13 0C20.1797 0 26 5.82024 26 13C26 20.1797 20.1797 26 13 26C5.82032 26 0 20.1797 0 13C0 5.82024 5.82032 0 13 0ZM12.9999 17.225C12.1024 17.225 11.3749 17.9525 11.3749 18.85C11.3749 19.7475 12.1024 20.475 12.9999 20.475C13.8974 20.475 14.6249 19.7475 14.6249 18.85C14.6249 17.9525 13.8974 17.225 12.9999 17.225ZM12.7831 5.68758C11.5177 5.68758 10.4541 6.03234 9.59369 6.71987C8.5741 7.54348 8.06469 8.75984 8.06469 10.3699H10.8289V10.3514C10.8289 9.73707 10.9584 9.23315 11.2165 8.84014C11.5727 8.31178 12.1505 8.0474 12.9493 8.0474C13.4408 8.0474 13.8592 8.17642 14.2027 8.43405C14.6326 8.79103 14.8483 9.33137 14.8483 10.0564C14.8483 10.5112 14.7371 10.9165 14.5162 11.2731C14.3318 11.5926 14.037 11.9057 13.6309 12.2131C12.7708 12.8029 12.2115 13.3867 11.9538 13.9646C11.7326 14.4439 11.6214 15.2057 11.6214 16.25H14.2214C14.2214 15.5617 14.3128 15.0458 14.498 14.7016C14.6452 14.419 14.9528 14.1181 15.4198 13.7984C16.2312 13.196 16.8083 12.6367 17.1526 12.1205C17.5702 11.5063 17.7796 10.7871 17.7796 9.96352C17.7796 8.25672 17.0854 7.04597 15.6958 6.33282C14.8606 5.90292 13.8897 5.68758 12.7831 5.68758Z" fill="#8D90A5"/>
</g>
</g>
</svg>
