<svg width="26" height="27" viewBox="0 0 26 27" fill="none" xmlns="http://www.w3.org/2000/svg">
<g id="Page-1">
<g id="add">
<path id="Combined-Shape" fill-rule="evenodd" clip-rule="evenodd" d="M13 0.699219C20.1797 0.699219 26 6.51946 26 13.6992C26 20.8789 20.1797 26.6992 13 26.6992C5.82032 26.6992 0 20.8789 0 13.6992C0 6.51946 5.82032 0.699219 13 0.699219ZM12.9999 17.9242C12.1024 17.9242 11.3749 18.6517 11.3749 19.5492C11.3749 20.4467 12.1024 21.1742 12.9999 21.1742C13.8974 21.1742 14.6249 20.4467 14.6249 19.5492C14.6249 18.6517 13.8974 17.9242 12.9999 17.9242ZM12.7831 6.3868C11.5177 6.3868 10.4541 6.73156 9.59369 7.41909C8.5741 8.2427 8.06469 9.45906 8.06469 11.0691H10.8289V11.0506C10.8289 10.4363 10.9584 9.93237 11.2165 9.53936C11.5727 9.011 12.1505 8.74662 12.9493 8.74662C13.4408 8.74662 13.8592 8.87563 14.2027 9.13327C14.6326 9.49025 14.8483 10.0306 14.8483 10.7557C14.8483 11.2105 14.7371 11.6158 14.5162 11.9723C14.3318 12.2918 14.037 12.6049 13.6309 12.9123C12.7708 13.5021 12.2115 14.0859 11.9538 14.6638C11.7326 15.1431 11.6214 15.905 11.6214 16.9492H14.2214C14.2214 16.2609 14.3128 15.7451 14.498 15.4009C14.6452 15.1182 14.9528 14.8174 15.4198 14.4976C16.2312 13.8952 16.8083 13.3359 17.1526 12.8198C17.5702 12.2055 17.7796 11.4863 17.7796 10.6627C17.7796 8.95593 17.0854 7.74519 15.6958 7.03204C14.8606 6.60214 13.8897 6.3868 12.7831 6.3868Z" fill="#8D90A5"/>
</g>
</g>
</svg>
