<svg width="26" height="26" viewBox="0 0 26 26" fill="none" xmlns="http://www.w3.org/2000/svg">
<path id="Vector" fill-rule="evenodd" clip-rule="evenodd" d="M26 13C26 20.1796 20.1796 26 13 26C5.82029 26 0 20.1796 0 13C0 5.82029 5.82029 0 13 0C20.1796 0 26 5.82029 26 13ZM9.06052 9.06054C9.44128 8.67979 10.0586 8.67979 10.4394 9.06054L13 11.6211L15.5605 9.06057C15.9412 8.67981 16.5586 8.67981 16.9394 9.06057C17.3202 9.44133 17.3202 10.0587 16.9394 10.4394L14.3788 13L16.9394 15.5605C17.3202 15.9412 17.3202 16.5586 16.9394 16.9394C16.5586 17.3202 15.9412 17.3202 15.5605 16.9394L13 14.3789L10.4394 16.9394C10.0586 17.3202 9.4413 17.3202 9.06054 16.9394C8.67979 16.5586 8.67979 15.9412 9.06054 15.5606L11.6211 13L9.06052 10.4394C8.67975 10.0586 8.67975 9.4413 9.06052 9.06054Z" fill="#EA3A3D"/>
</svg>
