<svg xmlns="http://www.w3.org/2000/svg" width="33.001" height="23.573" viewBox="0 0 33.001 23.573">
  <g id="warning-sign" transform="translate(-2 -6)" opacity="0.6">
    <path id="XMLID_403_" d="M8.3,27.577a1.178,1.178,0,1,1-1.7,1.634,16.472,16.472,0,0,1,0-22.848A1.178,1.178,0,1,1,8.3,8a14.118,14.118,0,0,0,0,19.581Z" transform="translate(0 0)" fill="#f3223c"/>
    <path id="XMLID_899_" d="M26.4,6.362a16.474,16.474,0,0,1,0,22.848,1.178,1.178,0,1,1-1.7-1.634A14.118,14.118,0,0,0,24.7,8a1.179,1.179,0,1,1,1.7-1.634Z" transform="translate(3.996 0)" fill="#f3223c"/>
    <path id="XMLID_902_" d="M17.786,6A11.786,11.786,0,1,0,29.572,17.786,11.8,11.8,0,0,0,17.786,6Zm0,3.536a2.109,2.109,0,0,1,2.1,2.343l-.918,8.264H16.607l-.918-8.264A2.109,2.109,0,0,1,17.786,9.536Zm0,17.679a2.357,2.357,0,1,1,2.357-2.357A2.357,2.357,0,0,1,17.786,27.215Z" transform="translate(0.714)" fill="#f3223c"/>
  </g>
</svg>
